<?xml version="1.0" encoding="UTF-8"?>
<!DOCTYPE svg PUBLIC "-//W3C//DTD SVG 1.1//EN" "http://www.w3.org/Graphics/SVG/1.1/DTD/svg11.dtd">
<!-- Creator: CorelDRAW -->
<svg xmlns="http://www.w3.org/2000/svg" xml:space="preserve" width="274.324mm" height="89.9798mm" version="1.1" style="shape-rendering:geometricPrecision; text-rendering:geometricPrecision; image-rendering:optimizeQuality; fill-rule:evenodd; clip-rule:evenodd"
viewBox="0 0 6565.96 2153.67"
 xmlns:xlink="http://www.w3.org/1999/xlink"
 xmlns:xodm="http://www.corel.com/coreldraw/odm/2003">
 <defs>
  <style type="text/css">
   <![CDATA[
    .fil0 {fill:#009B4C}
    .fil2 {fill:#1B1B7D}
    .fil1 {fill:#9A462D}
    .fil3 {fill:#B1ADAA}
    .fil4 {fill:#BAA971}
   ]]>
  </style>
 </defs>
 <g id="Layer_x0020_1">
  <metadata id="CorelCorpID_0Corel-Layer"/>
  <path class="fil0" d="M4149.69 816.95c-0.71,9.95 -19.09,56.53 -24.6,70.11 -9.11,22.46 -15.93,47.51 -25.64,67.66l51.32 -66.5c76.58,-104.69 75.22,-146.31 54.04,-260.22 15.86,2.13 24.09,7.62 33.5,17.15 7.03,7.11 16.91,16.05 24.07,25.38 4.3,-6.33 3.57,-1.53 4.51,-13.1 2.02,-24.78 -25.6,-57.16 -39.87,-72.16 13.18,4.25 8.95,4.53 18.68,11.04 53.22,35.57 80.78,79.08 107.4,95.96 -2.81,-7.9 -7.91,-29.28 -15.16,-42.65l-18.62 -35.13c10.01,10.48 15.24,11.06 26.71,18.77l74.41 59.06c-7.91,-8.95 -14.24,-20.28 -19.83,-30.36 -50.04,-90.3 -96.06,-147.73 -219.37,-151.76 27.61,-23.26 72.71,-8.4 111.39,-4.88 -11.22,-5.83 -51.08,-24.61 -55.92,-33.88 21.5,-3.5 35.45,0.94 51.4,4.01 14.89,2.87 28.62,6.46 47.1,9.72 -49.46,-41.92 -121.41,-57.78 -186.99,-23.84 -6.17,3.2 -14.77,6.64 -19.59,11.37 -5.58,-38.73 -11.77,-69.68 -32.28,-101.87 -12.49,-19.6 -52.88,-49.63 -75.97,-53.87 33.02,18.53 52.43,70.55 67.45,100.42 -23.16,-25.6 -38.8,-36.7 -72.11,-50.17 22.64,21.56 45.91,41.42 58.14,69.27 -8.58,-3.27 -21.13,-10.96 -40.52,-13.95l20.76 19.9c10.02,9.92 8.43,6.63 11.87,22.72 -40.45,-22.96 -98.47,-64.82 -152.43,-65.07 -61.89,-0.28 -108.11,26.55 -163.11,44.01 20.9,10.72 49.4,-6.14 74.01,-2.27l-19.44 13.17c-17.26,8.12 -32.96,19.81 -43.42,33.69 47.43,-7.74 79.22,-24.03 136.89,-22.39 5.57,0.16 21.77,1.42 21.87,1.44 11.41,2.13 7.28,0.85 16.12,5.93 -40.97,5.9 -78.91,17.68 -90.01,47.13 19.36,-11.88 45,-10.98 65.85,-2.22 -12.05,22.69 -37.9,41.22 -55.01,59.53 -19.82,21.22 -28.04,43.03 -38.85,69.6 -34.16,83.93 -18.99,113.49 -18.66,182.63 4.4,-8.59 5.07,-32.81 10.11,-54.28 5.16,-21.89 10.81,-39.21 16.83,-56.2 15.74,18.34 10.53,50.21 20.01,76.19 13.02,-52.65 22.74,-118.5 55.05,-162.92 0.87,23.2 -0.64,74.63 14.6,93.51 2,-38.8 16.33,-80.1 37.34,-103.9l13.96 39.65c20.37,-22.36 6.43,-48.77 45.36,-61.95l9.17 21.69c6.14,-7.25 21.08,-29.33 28.12,-35.13 -25.09,37.23 -44.67,75.03 -67.19,112.89 -45.58,76.64 -89.68,153.6 -127.79,234.05 -5.08,10.72 -10.6,20.15 -15.57,30.75l-39.92 93.04c-17.49,44.49 -34.15,88.32 -47.22,135.74 -6.83,24.78 -7.61,51.45 -20.84,70.65l-135.78 155.64c-4.62,5.15 -4.38,5.94 -9.47,11.35 -20.59,21.85 -47.12,39.69 -65.34,64.24 1.77,-37.79 155.19,-345.69 145.66,-369.5 -9.09,-22.74 -43.18,-54.44 -63.23,-66.82 -7.97,-4.92 -18.59,-9.57 -31.97,-9.78 -13.41,-0.21 -18.92,5.53 -26.35,15.92 -7.04,9.84 -11.31,15.69 -17.83,24.01 -13.76,17.54 -23.16,30.49 -35.72,51.46l-49.77 79.52c-51.28,80.88 -66.94,101.71 -128.8,174.46 -8.23,9.68 -12.59,14.1 -20.82,20.81 -9.63,7.86 -15.22,13.5 -27.65,16.36 -24.47,-89.01 62.18,-276.63 108.78,-363.73 22.01,-41.13 10.87,-41.94 -33.37,-78.09 -63.66,-52.03 -69.98,-31.13 -85.91,-20.36 -15.74,10.66 -22.87,19.6 -34.44,32.08l-58.19 62.8c-23.3,29.59 -51.92,54.13 -74,77.71 2.63,-28.92 31.77,-106.39 41.02,-139.9 6.56,-23.77 14.35,-46.75 21.55,-70.31 7.8,-25.5 11.67,-45.44 22.15,-56.94 93.63,-3.65 176.38,-14.17 272.15,-22.41 79.41,-6.84 151.83,-19.07 225.98,-45.26 17.31,-6.12 20.86,-15.84 20.88,-15.83l-496.29 -2.67c3.49,-24.71 12.29,-37.63 10.17,-62.99 -7.16,-85.63 -14.48,-114.16 -109.43,-105.36 -22.85,53.52 -28.8,114.23 -50.74,166.55 -43.65,5.6 -101.27,2.65 -146.06,5.02 -95.45,5.03 -166.36,-9.44 -121.65,40.34 7.81,8.7 15.69,15.94 24.59,21.58l55.29 36.01c18.18,7.91 127.37,-2.43 160.96,-2.71 -10.66,50.65 -26.43,99.8 -41.24,154.93 -11.2,41.71 -10.42,40.16 -34.61,64.88 -9.74,9.95 -16.36,14.84 -25.12,24.72l-22.89 23.07c-59.12,58.72 -147.5,136.56 -197.88,191.28 2.75,-24.82 17.42,-74.07 25.1,-101.93 9.7,-35.15 15.72,-63.85 25.36,-99.66 7.37,-27.41 10.78,-23.2 -0.03,-52.79 -6.13,-16.83 -10,-31.29 -18.35,-43.81 -13.09,-19.61 -55.48,-47.43 -80.5,-39.28 -14.57,4.75 -39.32,42.96 -50.75,57.47 -6.36,8.08 -7.85,12.11 -13.08,19.78l-169.85 217.45c-5.95,8.16 -8.15,11.06 -14.04,17.83 8.43,-29.35 20.12,-56.86 29.78,-85.61 24.86,-73.96 67.01,-134.45 26.44,-169.74 -22.54,-19.6 -47.21,-28.15 -85.66,-27.74l-94.41 118.86c-19.47,26.56 -39.04,56.25 -62.19,79.26l-79.45 95.23c-10.48,13.66 -4.44,9.59 -17.9,16.98 3.75,-21.58 60.63,-148.04 73.72,-177.52 17.39,-39.18 30.07,-47.96 1.02,-81.59 -17.81,-20.63 -41.53,-34.95 -82.99,-29.43 -17.83,8.54 -26.81,46.46 -43.35,56.36 -4.1,-29.3 -22.92,-85.32 -38.66,-107.49 -16.86,-23.74 -52.27,-50.13 -91.44,-54.83l-91.39 132.75c-95.04,143.75 -197.91,341 -258.22,503.68 -9.48,25.59 -14.51,16.26 -3.7,41.94 22.15,52.57 113.4,165.08 135.08,39.01 3.17,-18.48 35.66,-53.6 49.53,-66.9 60.29,-57.84 104.86,-124.5 171.18,-178.27 0.93,-0.75 3.76,-2.86 4.74,-3.6 0.73,-0.54 1.72,-1.25 2.45,-1.79 0.75,-0.53 1.74,-1.25 2.49,-1.78l22.15 -11.72c-12.92,26.23 -24.68,59.83 -35.67,90.29 -18.78,52.06 -67,147.58 -36.23,202.32 15.73,28 36.42,53.02 65.39,59.66 14.96,-5.89 14.86,-6.41 24.72,-17.01 48.36,-51.99 3.99,-52.03 100.99,-169.51 12.73,-15.42 19.93,-29.87 33.66,-45.71l114.52 -115.83c-4.29,38.05 -23.78,78.89 -35.09,116.8 -12.47,41.8 -24.95,73.79 -33.7,114.01l88.3 73.3c11.18,7.69 -3.93,3.62 14.56,6.77 32.47,-40.77 77.76,-139.57 104.86,-191.66 39.78,-76.45 128.11,-244.6 213.26,-277.18 -0.36,73.27 -22.2,129.95 -54.33,191.31 -4.99,9.55 -9.8,17.05 -14.51,26.86 -29.39,61.11 -72.19,103.62 -49.86,142 21.96,37.75 52.11,61.75 93.75,73.27 11.97,-25.95 60.01,-80.48 80.28,-103.72 28.42,-32.58 48.52,-68.07 79.3,-99.54l124.22 -129.54c16.19,-16 32.67,-39.41 53.06,-50.08 -1.71,2.42 -15.44,51.97 -19.22,63.26 -14.95,44.58 -82.62,220.53 -75.34,251.36 4,16.91 21.82,39.1 32.79,50.99 21.74,23.55 42.06,55.06 72.52,35.69 31.52,-20.03 32.36,-47.9 31.8,-88.32 -0.31,-22.81 8.6,-43.53 14.22,-65.73 26.93,-106.33 50.26,-203.01 128.32,-279.51 11.42,-11.2 37.13,-26.47 44.58,-35.25 -3.13,23.63 -26.1,86.88 -33.44,117.43 -8.94,37.23 -35.61,204.23 -13.63,233.01l49.33 63.51c4.5,5.98 4.2,5.99 8.39,12.3l7.81 11.45c54.44,-17.58 53.72,-6.25 67.68,-42.95l34.79 -64.99c38.46,-50.57 145.17,-167.32 189.68,-210.95 -15.19,59.14 -38.17,119.55 -61.23,181.75 -9.09,24.52 -9.67,22.7 3.67,45.93 7.27,12.68 15.94,25.29 27.82,34.52 36.47,28.37 41.58,37.66 80.3,23.02 66.29,-25.06 29.09,-26.28 85.03,-102.7 9.88,-13.49 13.8,-22.7 25.6,-36.84 10.24,-12.25 14.63,-20.59 27.08,-35.55 18.43,-22.15 74.18,-83.21 93.94,-90.1 3.92,23.4 0.29,42.14 4.83,75.4 3.04,22.22 6.03,35.77 12.13,62.99 11.29,50.35 30.95,93.43 64.88,121.93 30.63,25.72 20.23,26.97 68.1,20.32 39.41,-5.47 220.58,-21.09 235.58,-29.92 -41.8,-22.66 -92.39,-31.64 -138.79,-59.8 -53.28,-32.32 -68.99,-47.35 -105.75,-89.79 -69.28,-79.98 -12.1,-288.46 17.61,-390.67 17.61,-60.58 39.01,-117.89 62.78,-174.35 5.31,-12.61 6.41,-23 11.77,-34.27l59.08 -136.52c9.89,-20.56 52.95,-123.43 61.89,-132.81 2.07,41.32 -15.05,66.35 -26.15,95.95l5.88 -3.82c16.88,-11.33 35.66,-33.49 53.12,-42.06 10.5,22.56 -11.31,71.27 -20.58,94.77 -5.64,14.3 -15.33,22 -9.54,28l62.37 -69.73c-1.23,41.72 -31.72,139.58 -59.15,172.11 14.49,-13.58 63,-52.39 66.13,-66.2zm-2328.37 564.09c9.92,-61.31 105.21,-230.47 150.03,-269.28 15.06,6.66 27.58,13.01 33.65,30.04 12.69,35.52 -11.42,48 -21.78,59.23l-101.44 115.08c-12.61,14.56 -18.24,22.99 -28.32,34.01 -11.58,12.64 -22.78,18.7 -32.14,30.92z"/>
  <path class="fil1" d="M1286.41 1158.16c-11.13,-4.12 -22.73,-9.05 -35.53,-14.16 -40.36,-16.11 -111.78,-32.94 -132.83,-75.52 10.02,-18.73 31.28,-30.68 50,-41.51 17.92,-10.37 36.24,-21.5 55.81,-31.76 38.25,-20.05 78.95,-40.4 113.34,-61.06 75.27,-45.22 169.25,-104.9 123.74,-203.65 -37.49,-81.36 -127.05,-120.62 -209.65,-145.07 -86.54,-25.6 -188.93,-44.29 -288.01,-53.35 -6.49,25.8 -27.58,47.72 -34.91,74.45 15.5,12.75 225.61,30.12 262.89,79.07 -29.02,61.11 -275.98,64.36 -360.75,61.06 -63.57,-2.47 -229.95,-15.69 -272.58,-62.77 -10.47,-11.57 -12.8,-25.97 -3.04,-41.44 8.89,-14.13 17.28,-17.8 26.57,-27.09 -114.97,45.03 -68.22,99.07 44.05,130.61 140.75,39.54 392.37,44.43 533.35,5.1 28.22,-7.87 93.71,-26.97 93.99,-61.38 0.28,-35.49 -67.41,-69.18 -85.18,-71.79 17.28,-5.59 70.51,28.69 84.35,41.98 36.24,34.81 43.71,19.95 83.34,50.19 61.61,47.01 -8.75,128.34 -50.5,162.92 -48.55,40.21 -108.47,67.19 -170.72,95.6 -27.39,12.49 -60.68,32.14 -85.58,47.49 -60.95,37.59 -52.95,72.81 -0.73,109.44l120.94 78.89c26.88,16.3 54.81,35.77 82.11,51.12 11.92,6.71 29.98,19 40.14,26.39l55.56 40.13c19.73,15.87 75.16,59.76 89.25,77.16l28.37 34.44c62.03,72.81 41.47,162.44 -24.42,223.59 -63.37,58.8 -115.95,96.73 -208.87,124.28 -29.64,8.78 -68.36,20.04 -101.93,26.22 -234.09,43.15 -659.75,29.75 -881.93,-97.87 -54.64,-31.38 -91.98,-54.5 -129.51,-103.3 -25.44,-33.07 -41,-52.66 -52.84,-109.84 -8.63,-41.62 -1.42,-77.8 4.86,-116.93l-4.52 4.63c-0.53,0.67 -1.46,1.69 -2.02,2.45l-18.35 36.01c-0.39,0.91 -0.83,2.01 -1.2,2.95l-3.32 9.28c-6.82,19.34 -12.64,36.51 -15.92,55.4 -16.53,95.07 16.33,183.65 84.58,253.73l68.96 55.8c0.73,0.52 1.74,1.23 2.47,1.75 1.01,0.72 3.95,2.78 4.96,3.49l38.63 23.72c138,73.81 264.54,104.02 421.17,128.2 234.3,36.17 606.82,23.35 824.17,-74.91 22.98,-10.38 87.06,-40.38 106.88,-55.29 31.19,-23.46 57.65,-34.95 86.31,-71.87 -10.35,-14.78 -25.99,-21.13 -38.64,-35.94 -71.01,-83.05 -64,-85.26 -42.76,-145.81 28.63,-81.62 75.05,-156.89 93.93,-205.3 -21.43,-34 -116.48,-94.17 -154.25,-112.03 -11.51,-5.44 -17.73,-11.48 -31.71,-18.04 -7.42,-3.49 -13.04,-5.07 -20,-8.99l-162.51 -70.89zm-1237.01 219.57c0,-0.58 -0.92,-1.71 -1.24,-1.23 -3.92,5.86 1.65,1.63 1.75,1.72 0.02,0.02 -0.51,-0.25 -0.51,-0.49zm531.19 -767.04c-0.71,0.54 1.99,1.39 2.22,1.55l-2.22 -1.55z"/>
  <path class="fil2" d="M4759.68 1741.49c-53.42,-2.93 -111.08,-12.94 -158.55,-19.44 -58.36,-7.99 -114.01,-15.19 -172.24,-27.6 -26.3,-5.61 -144.18,-32.29 -164.36,-31.17l-316.77 40.8c35.31,40.5 349.54,107.12 394.46,114.45 134.63,21.96 276.57,38.37 435.91,46.85 170.46,9.07 485.25,9.18 655.3,-6.84 76.12,-7.17 147.69,-12.1 222.74,-22.72 76.82,-10.87 151.25,-20.52 223.17,-34.46 72.26,-14.01 139.23,-29.62 199.39,-43.96 75.76,-18.07 129.08,-39.24 200,-64.76l17.81 -6.76c8.08,-3.63 14.84,-7.41 22.77,-10.81l24.07 -9.53c4.96,-2.21 13.4,-6.51 19.16,-9.49 73.32,-37.77 180.43,-99.34 199.74,-188.15 16.93,-77.84 -26.6,-137.61 -89.73,-177 -105.91,-66.09 -240.61,-72.79 -359.91,-39.03l-21.57 9.02c101.32,-5.77 220.81,-8.93 303.8,53.49 30.46,22.92 59.26,69.1 53.38,110.75 -12.38,-22.67 -39.87,-37.75 -65.68,-39.85 -12.8,-1.04 -40.44,-1.19 -52.48,0.91 -18.06,3.14 -23.16,7.69 -32.91,17.18 14.06,14.95 28.74,38.91 36.35,59.54 30.72,83.23 -28.88,141.86 -94.78,177.53 -230.66,124.86 -713.06,130.93 -983.84,130.33 -125.73,-0.28 -207.03,-8.41 -328.56,-14.25 -59.76,-2.87 -110.09,-11.9 -166.69,-15.02z"/>
  <path class="fil3" d="M4214.32 1534.97c37.13,4.72 125.13,10.17 142.96,37.07 -24.89,34.8 -204.36,59.43 -263.43,66.24 -175.08,20.17 -377.6,53.92 -550.35,64.03 -43.62,2.56 -92.17,12.14 -134.89,14.14 -32.97,1.54 -117.56,5.35 -134.34,26.22 23.23,22.87 120.82,27.34 166.4,40.79l21.13 10.08c-83.21,27.47 -754.28,27.63 -849.56,28.17 -290.45,1.63 -527.79,-9.29 -787.69,-3.5 0.99,0.54 2.35,1.13 3.06,1.42l47.65 6.07c164.12,3.33 316.3,15.12 487.32,17.92 132.15,2.15 323.97,8.48 449.56,4.04 68.21,-2.42 159.18,-2.18 228.55,-3.53 82.66,-1.62 609.52,-14.89 645.09,-55.66 -14.95,-33.66 -170.83,-27.7 -200.28,-55.71 79.1,-11.55 238.9,-24.28 327.3,-33.23 50.67,-5.13 104.13,-13.29 160.28,-17.44 59.45,-4.39 99.8,-11.8 154.78,-17.51l561.87 -63.9c17.5,-1.97 56.27,-6.78 70.56,-20.29 -10.87,-18.44 -45.62,-18.08 -67.43,-21.12 -130.55,-18.19 -411.17,-34.46 -538.41,-34.04l59.85 9.77z"/>
  <path class="fil1" d="M624.37 1270.92c5.8,-142.01 26.88,-276.9 58.32,-413.44l21.62 -90.88c-26.67,-0.11 -39.69,-8.24 -54.68,-3.65l-66.49 335.87c-17.01,81.16 -41.66,277.1 -43.45,352.52 -1.93,81.15 6.97,183.13 54.7,219.2 12.51,3.95 51.07,-34.16 74.58,-48.37 -4.52,-24.69 -31.65,-51.09 -19.35,-115.24 12.44,-64.87 25.91,-42.91 35.49,-98.04l41.04 -216.33c8.3,-38.06 17.37,-74.04 26.64,-111.1l88.35 -297.72c-69.04,-4.84 -61.92,-11.33 -73.24,22.42 -49.27,146.84 -101.54,315.1 -143.52,464.76z"/>
  <path class="fil0" d="M801.11 731.51l55.24 3.29c13.24,-32.19 29.44,-69.98 42.75,-102.16 13.4,-32.43 30.69,-67.78 45.2,-100.35 47.59,-106.82 97.23,-190.16 146.31,-290.57 25.47,-52.09 110.71,-190.94 149.41,-241.71 -114.36,79.7 -366.61,469.88 -438.9,731.51zm-138.24 -15.63c19.13,0.72 33.73,8.52 47.84,3.15 10.12,-14.97 77.99,-297.63 88.9,-343.82l45.47 -166.17c1.49,-12 -51.6,-139.23 -61.86,-154.12 -1.72,2.1 -108.84,600.49 -120.35,660.95z"/>
  <path class="fil4" d="M2727.6 1965.94c-0.43,0.84 -0.95,1.97 -1.34,2.9 -0.4,0.98 -0.73,2.12 -1.08,3.17 -1.04,3.01 -2.5,10.69 -3.26,13.76 -3.24,13.27 -4.64,16.9 -8.82,28.12 -6.23,16.68 -10.24,42.37 -33.49,39.8 -18.16,-2.01 -25.22,-24 -31.56,-43.16 -7.05,-21.26 -6.2,-39.49 -19.15,-51.78 -11.8,13.04 -13.23,72.73 -15.29,89.48 -3.39,27.6 -5.75,66.44 -11.57,90.36 30.77,0.62 23.21,-8.14 27.43,-41.57 1.4,-11.15 7.87,-49.95 11.92,-56.72 11.78,20.85 12.55,49.46 37.66,52.2 31.51,3.43 29.21,-29.93 41.41,-50.58 7.74,14.01 8.28,37.16 10.23,49.97 1.42,9.34 2.98,23.23 4.47,30.81 4.38,22.37 -6.94,16.63 18.6,17.42 10.65,-17.83 3.96,-14.74 3.96,-14.76l-14.73 -126.18c-0.71,-7.93 -0.51,-16.04 -1.73,-23.5 -2.93,-17.9 -5.59,-14.86 -8.32,-17.02 -6.19,5.43 -1.38,-0.6 -5.35,7.27zm3003.89 147.64c-82.18,-9.66 -42.02,-4.61 -63.22,-156.25 -16.52,5.46 -10.93,-2.45 -12.55,17.06 -2.83,33.93 -9.08,160.78 -1.49,179.28 41,-18.46 -5.17,-15.34 97.42,-22.2 -3,-21.84 8.46,-14.53 -20.17,-17.89zm-1523.01 -146.18c-14.87,-7.91 -123.87,-7.84 -142.74,0 6.88,8.08 -12.41,0.44 9.89,10.56 42.29,19.21 40.03,-23.77 49.17,65.96 1.5,14.71 1.52,37.2 3.33,56.58 3.26,34.72 -2.78,41.33 11.96,38.8 6.95,-1.86 12.38,-133.14 14.29,-153.46 14.89,-3.72 47.67,-1.65 54.1,-18.44zm1224.08 166.47c-10.27,-8.85 -74.29,-7.54 -72.7,-100.02 1.68,-97.88 58.2,-40.72 85.55,-44.5l-0.69 -24.98c-25.48,-2.99 -54.79,-5.94 -79.04,5.21 -21.43,9.84 -34.55,39.9 -33.89,72.69 2,99.71 81.37,109.73 100.77,91.6zm-3711.03 -165.95c-25.55,-8.23 -116.96,-6.4 -147.59,-3.51 8.08,7.88 -10.06,9.89 23.7,15.15 30.5,4.75 35.76,3.85 38.13,53.5 1.32,27.69 0.62,93.72 10.96,107.66 16.41,-5.84 11.69,-42.33 13.55,-77.8 1.25,-23.77 2.68,-46.34 4.86,-72.93 16.19,-5 49.29,-9.1 56.38,-22.07zm4145.56 -0.42c-25.7,-9.83 -114.49,-7.28 -146.47,-1.42 6.09,16.07 -3.68,9.79 22.06,13.73 11.27,1.73 16.74,0.1 26.41,6.39 20.91,13.62 5.08,126.45 22.21,154.8 16.14,-3.67 11.7,-22.24 14.14,-69.35 1.19,-22.96 -0.73,-64.16 7.97,-83.44 16.68,-8.25 44.77,-4.14 53.69,-20.72zm-2181.61 16.3c1.47,-14.76 1.19,-13.87 -13.43,-16.22 -76.45,-12.29 -86.61,-10.76 -88.4,28.77 -1.18,26.2 -3.17,54.16 -2.22,79.45 1.31,35.06 -4.5,54.64 8.83,66.78 9.1,-9.33 8.76,-19.78 10.87,-35.29 8.96,-65.87 52.19,-25.4 74.08,-52.48l-21.41 -6.66c-19.11,-2.03 -32.84,3.07 -50.77,-5.83 7.87,-69.13 -2.46,-44.43 82.44,-58.51zm-461.45 161.32c11.13,-10.48 9.46,-40.2 10.9,-54.79 2.19,-22.17 2.16,-31.33 13.49,-48.52 15.39,-23.32 49.55,-63.66 42.2,-80.36 -25.34,6.48 -19.9,42.3 -66.58,61.38 -28.63,-17.7 -39.97,-50.47 -64.36,-63.83 -13.33,14.38 -14.1,2.65 -6.91,20.73 0.31,0.8 10.94,18.16 12.86,20.97 9.73,14.18 17.7,20.86 28.5,38.4 20.33,33.05 12.84,83.49 29.91,106.01zm787.28 -147.97l24.59 73.67c-19.54,1.41 -32.4,2.77 -46.73,-2.82 -3.89,-15.48 0.64,-20.95 6.72,-36.31 4.95,-12.49 7.74,-26.52 15.42,-34.53zm-59.9 144.8c16.7,-11.86 13.47,-22.34 24.31,-39.04 15.54,-23.94 54.52,-17.14 66.39,-8.77l12.57 16.37c24.37,41.89 10.28,28.9 27.19,30.96 0.28,-22.19 -54.84,-170.98 -67.11,-183.41 -17.18,4.72 -19.6,22.79 -26.64,40.74l-51.38 135.31 14.68 7.83zm633.49 -104.23c-9.34,-18.5 -1.99,-44.4 16.72,-49.98 22.14,-6.6 51.44,3.93 66.7,-7.86 -4.15,-12.78 12.71,-9.72 -42.46,-15.1 -24.11,-2.35 -35.76,-6.16 -56.2,0.3 -14.65,37.05 -9.21,134.95 0.68,171.02 31.05,9.18 70.56,4.2 102.12,-5.01 2.44,-5.89 3.28,-5.33 -1.57,-16.05 -23.37,4.65 -86.81,11.9 -88.14,-22.06 -1.82,-46.6 59.08,-21.91 74.43,-47.62l-72.28 -7.65zm-2647.66 3.26c2,-27.43 -3.26,-46.03 20.72,-53.23 17.53,-5.26 39.27,0.49 54.85,-3.17 1.32,-0.31 17.05,-0.46 9.39,-10.91 -5.9,-8.04 -18.75,-5.96 -35.88,-8.28 -19.1,-2.6 -40.55,-8.19 -56.58,0.55 -17.29,15.01 -14.41,112.82 -10.81,141.19 7.01,55.14 55.44,32.1 115.28,23.51 -7.63,-23.18 -12.69,-15.96 -41.48,-13.57 -15.01,1.25 -42.33,0.54 -50.38,-12.76 -22.53,-37.18 28.98,-43.6 47.13,-46.99 4.71,-0.88 9.42,-1.31 13.87,-3.28 10.98,-4.87 3.81,2.4 8.64,-9l-74.75 -4.04zm4302.06 -30.35c7.5,-33.15 38.53,-23.75 86.26,-25.35 -1.43,-23.92 -9.53,-17.71 -30.97,-19.03 -80.13,-4.92 -72.8,-18.89 -75.44,80.22 -1.04,38.99 -6.3,86.78 23.28,94.38 9.48,2.43 83.67,2.37 90.69,-19.47 -16.17,-18.84 -84.89,16.3 -93.06,-26.68 -8.48,-44.49 51.91,-27.83 74.39,-45.15 -17.18,-11.31 -51.14,-8.56 -75.66,-10.48 -0.23,-11.81 -2.26,-16.17 0.51,-28.43zm-3861.54 59.83c-79.9,19.92 -35.61,-44.9 -29.16,-72.51l6.91 8.92c1.59,2.57 3.17,6.19 4.43,9.04l17.82 54.55zm-81.1 69.83c26.74,-29.45 8.84,-55.43 61.86,-53.18 45.84,1.95 35.48,42.07 62.3,54.72 7.55,-19.88 -35.09,-119.09 -44.17,-142.7 -13.61,-35.4 -9.5,-33.7 -22.42,-42.25 -12,6.09 -2.96,-0.74 -10.2,8.43 -9.33,11.79 -65.67,170.87 -65.7,171.01l18.32 3.98zm2506.84 -75.97c-0.63,-15.17 14.62,-57.29 23.57,-67.21 5.42,22.81 18.49,49.23 24.4,75.54 -25.02,-0.87 -29.21,1.63 -47.97,-8.33zm22.79 -106.84c-13.95,7.57 -7.52,2.06 -15.25,20.22l-26.71 68.46c-14.19,37.2 -41.4,87.44 -20.02,92.34 14.3,3.29 11.96,-0.9 18.49,-15.04 3.73,-8.08 5.08,-15.55 10.43,-22.88 9.67,-13.26 26.52,-14.28 36.85,-13.64 19.72,1.22 28.67,7.8 39,20.79 21.15,26.63 7.56,28.9 28.72,33.86 -0.54,-17.64 -9.47,-37.16 -13.99,-52.65 -5.62,-19.27 -9.12,-27.95 -17.03,-45.64 -15.23,-34.05 -20.01,-75.78 -40.5,-85.83zm-2981.34 25.29c-1.15,6.49 -1.77,11.4 -2.63,17.85 -5.01,37.1 -5.41,37.67 -37.18,37.7 -57.55,0.05 -36.68,-9.85 -44.53,-62.78l-4.05 -13.73c-0.19,-1.72 -0.9,-2.15 -1.6,-3.06 -7.7,5.97 -2.07,-3.85 -7.48,9.87 -3.79,9.58 -7.82,157.19 2.63,171.75l14.45 -2.25 15.43 -75c12.64,-6.91 47.72,-13.1 60.08,-2.24 18.31,15.28 4.71,47.16 14.19,73.99 2.56,7.25 2.36,4.93 4.73,7.68 14.13,-18.02 9.5,-109.57 9.06,-141.86 0.09,-27.43 6.6,-33.89 -17.38,-37.63l-5.72 19.71zm400.92 -19.18c-39.19,0.4 -7.91,50.83 -33.14,69.62 -17.5,7.08 -47.72,6.73 -64.4,1.96l-8.55 -77.22c-19.92,11.63 -12.49,49.85 -13.02,67.75 -0.73,23.78 -0.85,42.2 -0.83,74.88l0.01 4.16c0.02,27.25 -6.62,31.76 16.04,35.35 15.41,-18.53 7.25,-55.81 18.02,-72.03 8.32,-12.55 34.95,-14.02 48.59,-12.41 23.43,2.74 23.33,11.23 23.54,45.48 0.02,3.28 -0.15,22.99 0.13,24.69 4,23.68 -3,10.26 12.13,18.01 5.62,-17.94 10.81,-157.57 1.47,-180.23zm216.57 180.15c1.97,-2.26 6.86,1.15 9.15,-26.41 0.84,-10.07 0.45,-15.35 0.71,-23.54 3.15,-99.84 0.75,-139.9 59.34,-111.95 5.67,19.12 7.59,31.28 -7.21,47.47l-27.62 22.48c-6.95,6.25 -1.28,-1.63 -6.26,7.17 6.51,20.18 28.1,32.36 41.7,46.68 28.18,29.66 30.49,39.46 47.43,28.1 -3.65,-17.19 -45.34,-57.61 -51.5,-78.95 10.77,-16.68 21.61,-19.62 32.4,-35.11 4.53,-6.51 7.99,-15.42 6.58,-27.02 -5.2,-42.5 -105.07,-38.91 -110.63,-24.03l-1.42 161.82c1.98,14.56 6.24,12.35 7.32,13.28zm3548.79 -186.61c-14.27,6.51 -10.18,-5.77 -13.45,20.41l-5.24 76.95c-2.85,31.21 -7.84,64.43 -36.35,69.22 -60.46,10.19 -34.06,-136.76 -43.7,-159.34l-12.49 -0.91c-3.85,4.33 -1.82,0.67 -4.78,8.24 -6.64,16.98 -7.43,128.62 0.34,145.79 15.54,34.35 73.06,14.03 89.32,17.91 17.58,4.19 8.46,7.01 25.68,18.2 6.08,-18.64 8.05,-165.1 0.67,-196.46zm-415.03 1.42c-13.25,8.22 -7.68,10.12 -9.91,46.91 -2.52,41.64 -3.02,118.7 -44.13,118.99 -60.13,0.42 -27.03,-129.48 -41.66,-159.68l-12.51 -0.57c-15.46,16.49 -10.62,130.04 -6.35,146.44 7.89,30.29 26.75,28.19 54.15,26.51 37.96,-2.32 34.47,-5.99 55.29,10.84 0.55,0.45 2.14,2.82 2.54,2.06 0.4,-0.78 1.69,1.41 2.57,2.08 12.19,-17.59 12.7,-172.17 0,-193.58zm-1248.51 0.45c-19.28,33.36 7.72,165.24 -52.98,165.03 -55.33,-0.19 -30.06,-120.95 -36.07,-160.46l-21.31 -1.74c-1.27,48.35 -11.81,99.79 -0.56,146.33 6.98,28.87 27.65,31.04 52.63,29.87 78.82,-3.7 27.06,4.6 62.46,12.8 11.63,-20.79 6.77,-72.23 6.52,-96.53 -0.19,-18.9 5.65,-83.54 -10.69,-95.3zm66.59 184.7c14.99,-16.18 10.83,-103.56 14.94,-141.57 6.68,-61.7 103.4,-10 32.55,37.75 -16.22,10.92 -15.69,9.67 -20.08,19.09 8.58,15.8 26.87,30.08 40.87,44.09l40.84 40.27c10.45,-17.02 14.78,-6.22 2.68,-24.91l-38.45 -49.56c-0.51,-0.66 -1.29,-1.67 -1.78,-2.3l-7.36 -10.38c4.75,-8.35 6.81,-11.38 14.12,-19.21 6.31,-6.75 1.33,-1.88 8.41,-7.52l7.23 -5.35c32.69,-29.63 4.4,-85.71 -103.4,-58.61 -2.52,20.91 -2.17,147.31 4.2,167.9 3.14,10.13 -0.25,3.66 5.24,10.31zm-1310.52 -159.95c-4.23,37.88 3.53,53.98 -12.24,73.06l-73.4 -70.73c-9.69,-10.7 -10.37,-20.39 -20.21,-27.3 -9.72,18.22 -5.57,58.44 -5.44,83.21 0.11,20.92 -2.68,83.86 6.84,98.76 10.52,-6.11 3.93,0.91 8.52,-11.33l4.59 -45.54c2.46,-27.06 -1.86,-38.08 7.09,-48.34 18.51,5.21 36.72,29.27 52.76,46.15 26.93,28.35 23.13,20.93 35.05,52.25l2.82 6.53c0.24,-0.63 0.89,2.28 1.55,3.31 5.59,-5.42 4.27,-1.9 7.51,-11.15 2.17,-6.16 1.26,-5.18 1.84,-11.2l-2.83 -159.64c-14.73,4.76 -11.53,-3.94 -14.43,21.94zm2972.69 160.01c9.96,-33.42 -0.42,-145.92 18.92,-164.45 22.96,-21.99 79.87,17.78 28.6,58.12 -14.94,11.77 -15.32,5.27 -25.89,21.54 5.06,11.38 8.44,13.77 19.15,24.1 24.44,23.57 46.38,56.32 70.24,55.46 0.47,-30.53 -39.76,-54.89 -50.56,-83.73 12.6,-22.19 57.76,-43.83 31.86,-77.2 -14.56,-18.74 -72.38,-25.66 -98.13,-15.26 -12.21,9.55 -7.32,-0.32 -11.6,19.19l4.7 145.75c5.49,28.33 -4.25,10.39 12.72,16.48zm-1023.95 0.08c5.6,-39.49 4.16,-109.03 3.15,-151.94 -0.5,-21.47 3.25,-26.99 -12.95,-28.43 -4.89,14.1 -8.82,76.84 -10.76,94 -34.74,-10.64 -90.36,-92.11 -100.93,-97.35 -6.7,18.4 -3.69,111.24 -3.62,144.53 0.06,33.52 0.04,29.86 11.27,34.04l8.3 -55.37c2.73,-35.69 -2.19,-35.14 9.93,-47.74 9.55,4.33 41.04,38.16 51.53,49.51 30.32,32.78 17.74,8.43 31.31,43.38 6.95,17.89 -3.43,7.78 12.79,15.38zm80.54 -96.08c-0.32,-18.41 -1.18,-50.74 0.16,-64 22,-10.79 75.72,18.72 77.47,62.72 1.72,43.44 -28.78,72.8 -69.72,68.23 -12.99,-23.07 -7.45,-41.03 -7.91,-66.95zm-22.23 -95.41c-14.44,38.27 -1.32,153.94 -0.8,200.8 23.57,-7.16 17.12,-15.31 45.31,-22.71 18.25,-4.79 25.27,-6.36 41.68,-16.84 20.56,-13.14 44.5,-32.48 44.39,-66.39 -0.12,-36.75 -23.76,-50.85 -49.02,-63.16 -12.88,-6.27 -72.85,-31.13 -81.56,-31.7zm-1231.4 104.51l-74.59 -70.95c-9.21,-11.15 -9.83,-18.98 -18.96,-25.16 -13.07,13.69 -9.34,168.78 0,179.95 13.65,-4.35 9.52,-3.15 10.44,-21.82 1.12,-22.95 0,-65.93 12.47,-82.79 13.92,8.89 14.91,10.57 27.04,22.83 10.16,10.27 16.3,17.09 25.1,24.94 41.84,37.3 19.78,46.02 41.49,59.34 7.21,-12.25 5.28,-27.43 5.33,-42.71l-0.12 -91.19c-0.3,-7.93 -0.36,-17.73 -0.91,-25.47l-4.29 -21.37c-13.32,4.32 -10.52,-7.42 -11.53,19.17 -0.76,20.12 -0.99,60.48 -11.46,75.24zm-1060.98 -24.63c6.54,-83.85 131.79,-79.37 105.82,42.37 -18.64,87.32 -113.82,60.22 -105.82,-42.37zm136.38 18.42c11.29,-117.18 -165.23,-124.96 -163.68,-4.09 0.72,56.24 29.91,96.82 83.6,95.01 25.46,-0.86 47.24,-11.73 60.89,-29.91 11.15,-14.84 16.91,-37.29 19.19,-61.01zm494.09 -71.68c42.35,-6.78 62.27,15.21 65.02,55.5 8.1,118.66 -97.88,115.69 -105.96,32.6 -4.52,-46.56 -1.17,-81.37 40.94,-88.1zm92.88 84.17c8.69,-56.38 -20.39,-96.12 -71.39,-102.17 -137.34,-16.3 -113.64,213.92 15.06,176.81 32.85,-9.48 50.63,-37.69 56.33,-74.63z"/>
 </g>
</svg>
