<?xml version="1.0" encoding="UTF-8"?>
<!DOCTYPE svg PUBLIC "-//W3C//DTD SVG 1.1//EN" "http://www.w3.org/Graphics/SVG/1.1/DTD/svg11.dtd">
<!-- Creator: CorelDRAW -->
<svg xmlns="http://www.w3.org/2000/svg" xml:space="preserve" width="135.129mm" height="117.382mm" version="1.1" style="shape-rendering:geometricPrecision; text-rendering:geometricPrecision; image-rendering:optimizeQuality; fill-rule:evenodd; clip-rule:evenodd"
viewBox="0 0 8867.39 7702.83"
 xmlns:xlink="http://www.w3.org/1999/xlink"
 xmlns:xodm="http://www.corel.com/coreldraw/odm/2003">
 <defs>
  <style type="text/css">
   <![CDATA[
    .fil11 {fill:#FEFEFE;fill-rule:nonzero}
    .fil27 {fill:#FACC76;fill-rule:nonzero}
    .fil25 {fill:#F7C7C8;fill-rule:nonzero}
    .fil6 {fill:#F49E2C;fill-rule:nonzero}
    .fil29 {fill:#EE8180;fill-rule:nonzero}
    .fil20 {fill:#EA5D5B;fill-rule:nonzero}
    .fil24 {fill:#FBFBFD;fill-rule:nonzero}
    .fil7 {fill:#DC7324;fill-rule:nonzero}
    .fil8 {fill:#E3E2E8;fill-rule:nonzero}
    .fil12 {fill:#D6D4DD;fill-rule:nonzero}
    .fil21 {fill:#D3EDFB;fill-rule:nonzero}
    .fil13 {fill:#CCCAD8;fill-rule:nonzero}
    .fil18 {fill:#C8C5D3;fill-rule:nonzero}
    .fil0 {fill:#C6C5D4;fill-rule:nonzero}
    .fil19 {fill:#6D2324;fill-rule:nonzero}
    .fil10 {fill:#ABDDF7;fill-rule:nonzero}
    .fil23 {fill:#AFA7BB;fill-rule:nonzero}
    .fil2 {fill:#AADCEE;fill-rule:nonzero}
    .fil15 {fill:#ACC7DE;fill-rule:nonzero}
    .fil30 {fill:#A6A0B7;fill-rule:nonzero}
    .fil28 {fill:#79CAE3;fill-rule:nonzero}
    .fil14 {fill:#7CBCCE;fill-rule:nonzero}
    .fil16 {fill:#777382;fill-rule:nonzero}
    .fil22 {fill:#67C7F2;fill-rule:nonzero}
    .fil17 {fill:#676677;fill-rule:nonzero}
    .fil9 {fill:#4ABED1;fill-rule:nonzero}
    .fil26 {fill:#0FB5CB;fill-rule:nonzero}
    .fil5 {fill:#3C3C47;fill-rule:nonzero}
    .fil4 {fill:#252532;fill-rule:nonzero}
    .fil1 {fill:#00A4BF;fill-rule:nonzero}
    .fil3 {fill:#005479;fill-rule:nonzero}
   ]]>
  </style>
 </defs>
 <g id="Layer_x0020_1">
  <metadata id="CorelCorpID_0Corel-Layer"/>
  <path class="fil0" d="M6569.98 7432.11c0,149.54 -718.12,270.72 -1603.96,270.72 -885.83,0 -1603.95,-121.18 -1603.95,-270.72 0,-149.52 718.12,-270.73 1603.95,-270.73 885.84,0 1603.96,121.21 1603.96,270.73z"/>
  <path class="fil0" d="M8867.39 6956.3c0,191.8 -989.63,347.31 -2210.41,347.31 -1220.79,0 -2210.43,-155.51 -2210.43,-347.31 0,-191.83 989.64,-347.35 2210.43,-347.35 1220.77,0 2210.41,155.52 2210.41,347.35z"/>
  <path class="fil0" d="M8856.18 6332.36c0,191.82 -989.63,347.33 -2210.41,347.33 -1220.79,0 -2210.43,-155.51 -2210.43,-347.33 0,-191.82 989.64,-347.33 2210.43,-347.33 1220.77,0 2210.41,155.51 2210.41,347.33z"/>
  <path class="fil0" d="M5591.94 7153.12c0,162.91 -842.61,294.97 -1881.98,294.97 -1039.4,0 -1882,-132.06 -1882,-294.97 0,-162.91 842.6,-294.98 1882,-294.98 1039.37,0 1881.98,132.06 1881.98,294.98z"/>
  <path class="fil0" d="M3763.98 6212.15c0,162.91 -842.61,294.97 -1882,294.97 -1039.39,0 -1881.99,-132.06 -1881.99,-294.97 0,-162.91 842.6,-294.98 1881.99,-294.98 1039.39,0 1882,132.07 1882,294.98z"/>
  <path class="fil0" d="M1993.03 7357.21c-24.28,24.65 -46.19,39.23 -68.96,45.84 -27.64,8.08 -56.53,2.32 -73.61,-14.59 -40.46,-40.02 -3.67,-113.47 8.58,-135.03 23.7,-41.78 52.35,-81.5 85.49,-119.44 10.78,1.47 21.82,2.91 32.83,4.38 5.75,0.77 11.38,1.55 17.22,2.3 20.52,2.68 41.41,5.31 62.79,7.94l2.04 -1.28c13.22,-7.76 25.96,-15.77 38.72,-23.76 -6.28,87.11 -43.69,171.34 -105.09,233.64zm-1454.34 -862.26c-1.22,-36.37 37.58,-62.39 70.35,-77.81 213.72,-100.49 475.51,-86 677.93,34.78 -3.66,2.1 -7.4,4.17 -11.06,6.27 -119.59,68.9 -221.43,149.92 -299.73,239.24 -9.68,11.03 -18.76,22.29 -27.73,33.6 -126.9,-33.91 -249.85,-90.98 -356.93,-166.48 -24.08,-16.99 -51.85,-40.27 -52.83,-69.59zm1957.32 301.52c-13.28,-0.8 -26.48,-2.13 -39.6,-3.76l-2.07 -5.3c-3.06,1.19 -5.95,2.43 -9,3.63 -76.57,-11.06 -147.53,-36.58 -188.75,-78.41 -25.11,-25.47 -54.74,-49.1 -88.02,-70.49 -11.27,-7.26 -23.1,-14.14 -35.17,-20.86 -14.66,-8.16 -29.76,-16.04 -45.5,-23.39 -38.25,-17.86 -79.45,-33.21 -122.75,-45.68 -13.31,-3.84 -26.88,-7.32 -40.55,-10.59 -41.92,-10.07 -85.38,-17.57 -129.77,-22 -41.64,-4.16 -83.73,-5.78 -125.86,-7.14 -22.3,-0.73 -44.62,-1.36 -66.89,-2.24 -21.46,-0.83 -42.89,-1.92 -64.24,-3.5 -13.37,-0.97 -26.53,-2.57 -39.54,-4.48 -3.05,-0.44 -6.05,-0.94 -9.08,-1.44 -11.55,-1.88 -22.97,-4.02 -34.16,-6.59l-3.66 -0.78c-26.99,-6.39 -52.81,-14.62 -77.05,-24.54 -4.38,-1.78 -8.87,-3.46 -13.14,-5.36 -17.4,-7.74 -33.91,-16.37 -49.32,-25.78 -2.35,1.26 -4.57,2.63 -6.88,3.93 -208.7,-128.67 -481.51,-145.56 -703.71,-41.05 -54.11,25.45 -82.07,58.28 -80.83,94.92 1.25,37.37 33.02,64.47 60.56,83.9 111.31,78.51 239.53,137.45 371.64,171.57 22.82,23.77 46.22,46.27 70.67,67.41 7.12,6.14 14.33,12.19 21.63,18.12 14.59,11.86 29.58,23.32 45.06,34.4 15.47,11.06 31.41,21.74 47.92,32.06 8.24,5.15 16.65,10.21 25.19,15.19 17.09,9.95 34.78,19.54 53.15,28.81 9.19,4.63 18.55,9.18 28.09,13.64 13.89,6.5 28.29,12.78 42.96,18.95l0.01 0c2.53,1.04 5.05,2.12 7.61,3.18 8.56,3.54 17.32,7 26.16,10.45l0.29 0.1c17.88,6.92 36.33,13.65 55.46,20.14 17.07,5.83 34.65,11.49 52.79,17 6.28,1.92 12.66,3.79 19.08,5.68 20.97,6.11 42.52,12.1 65,17.87 26.25,6.76 53.57,13.28 82.03,19.59 2.83,0.62 5.82,1.24 8.68,1.86l4.86 1.02c13.51,2.96 27.27,5.84 41.3,8.69 3.37,0.67 6.82,1.35 10.23,2.03 12.46,2.48 25.08,4.95 37.96,7.38 4.52,0.85 9.11,1.69 13.68,2.54 11.98,2.21 24.1,4.4 36.44,6.55 5.47,0.97 10.97,1.92 16.52,2.87 11.81,2 23.83,4.02 35.99,6 6.06,0.98 12.12,1.99 18.28,2.96 12.07,1.92 24.38,3.82 36.77,5.72 6.5,0.96 12.93,1.98 19.52,2.96 12.53,1.84 25.34,3.69 38.22,5.51 2.96,0.42 5.81,0.85 8.78,1.28 -30.64,36.15 -57.39,73.87 -79.84,113.42 -13.86,24.42 -55.23,107.91 -5.53,157.03 15.37,15.22 37.87,23.43 61.75,23.43 9.82,0 19.9,-1.41 29.79,-4.27 25.89,-7.54 50.33,-23.63 76.89,-50.59 67.48,-68.45 107.5,-162.15 111.12,-258.16l4.34 -2.66c41.71,-26.79 81.31,-54.56 119.12,-83.19 80.43,-60.9 152.66,-125.89 220.14,-193.66 11.83,-11.9 23.68,-23.79 35.24,-35.86z"/>
  <path class="fil1" d="M2077.95 7122.4c-647.77,-79.19 -905.36,-183.89 -1115.84,-409.18 89.02,-115.02 215.92,-218.38 370.35,-301.63 61.66,37.63 140.59,62.64 225.98,68.98 85.37,6.32 172.07,4.4 256.99,12.87 188.28,18.79 361.35,91.13 461.75,192.99 50.23,50.98 144.45,78.14 239.42,83.84 -123.86,129.36 -263.14,249.07 -438.66,352.13z"/>
  <path class="fil2" d="M1833.39 6821.63c-68.77,-92.76 -193.67,-119.98 -307.64,-138.56 -112.46,-18.35 -231.19,-39.73 -312.35,-126.77 47.39,106.39 131.8,126.75 236.21,149.64 129.83,28.49 271.69,36.77 383.78,115.68z"/>
  <path class="fil3" d="M2077.95 7122.4c175.52,-103.07 314.79,-222.77 438.66,-352.13 -94.97,-5.71 -189.19,-32.86 -239.42,-83.84 -100.4,-101.86 -273.47,-174.2 -461.75,-192.99 -84.92,-8.47 -171.62,-6.56 -256.99,-12.87 -58.81,-4.35 -114.39,-17.76 -163.54,-37.86 -1.12,4.99 -1.92,9.99 -1.96,14.97 77.74,67.59 184.19,90.49 286.47,102.77 102.28,12.29 207.61,16.88 302.67,56.62 134.05,56.07 239.4,178.78 382.71,202.76 -13.51,22.79 -29.71,48.59 -43.22,71.37 -139.2,-131.41 -326.53,-211.32 -516.93,-231.21 79.17,6.3 151.51,45.13 217.33,89.59 65.83,44.46 123.45,99.8 180.7,154.85 -9.27,9.27 -31.33,28.11 -40.6,37.4 -18.15,18.15 -39.66,37.98 -58.23,55.69 -50.33,5.97 -101.21,6.87 -151.17,-1.64 16.62,15.19 36.28,27.02 57.48,34.56 -232.94,-13.89 -472.51,-34.98 -702.22,-77.05 177.12,74.44 414.83,125.57 770.02,169z"/>
  <path class="fil2" d="M2277.19 6686.42c-100.4,-101.86 -273.47,-174.2 -461.75,-192.99 -84.92,-8.47 -171.62,-6.56 -256.99,-12.87 -85.39,-6.33 -164.31,-31.34 -225.98,-68.99 -12.26,6.61 -24.04,13.56 -35.96,20.43 44.5,42.85 104.31,70.6 165.22,84.57 82.08,18.8 167.33,15.94 251.53,15.13 84.2,-0.8 170.1,0.81 249.82,27.9 69.44,23.58 131.01,65.42 191.02,107.59 60,42.14 120.16,85.52 188.21,112.88 43.95,17.67 92.02,27.9 139.06,26.07 11.84,-11.88 23.68,-23.81 35.25,-35.88 -94.97,-5.71 -189.19,-32.86 -239.42,-83.84z"/>
  <path class="fil2" d="M2189.92 7050.94c-212.46,12.19 -426.83,1.5 -631.75,-54.12 -211.45,-57.38 -412.97,-165.67 -561.39,-325.6 -12.11,13.83 -23.68,27.82 -34.66,42 210.48,225.3 468.07,330 1115.84,409.18 39.12,-22.99 76.19,-46.89 111.96,-71.46z"/>
  <path class="fil2" d="M1350.33 6431c-122.16,-82.58 -269.46,-124.78 -416.57,-124.78 -107.32,0 -214.57,22.46 -311.9,68.23 -18.64,8.78 -38.34,20.34 -53.85,35.44 -15.45,15.01 -27.03,34.2 -27.02,57.17l0.05 2.32c0.64,19.15 9.29,35.55 20.78,49.17 11.52,13.69 26.01,25 39.79,34.73 116.62,82.22 248.8,142.22 387.47,175.81l4.29 -17.74c-136.41,-33.04 -266.53,-92.09 -381.24,-173 -13.22,-9.29 -26.53,-19.85 -36.33,-31.53 -9.84,-11.74 -16.04,-24.19 -16.5,-38.05l-0.03 -1.7c0.01,-16.56 8.18,-31.04 21.5,-44.09 13.26,-12.95 31.38,-23.79 48.88,-32 94.73,-44.57 199.36,-66.51 304.13,-66.51 143.63,0 287.46,41.27 406.34,121.66l10.23 -15.11z"/>
  <path class="fil3" d="M1859.87 6928.82c-76.19,-53.04 -170.79,-71.6 -262.98,-82.47 -92.2,-10.88 -186.27,-15.53 -274.14,-45.48 -87.86,-29.98 -171.06,-90.63 -201.01,-178.51 46.41,78.18 136.38,115.11 223.7,140.32 87.34,25.23 178.83,32.19 267.73,51.18 88.9,18.97 184.86,48.33 246.7,114.97z"/>
  <path class="fil2" d="M2474.94 6761.21c-240.69,93.78 -482.27,230.13 -611.2,456.98 -15.88,28.09 -29.31,62.53 -29.39,95.46 -0.06,22.43 6.63,44.64 23.85,61.6 16.54,16.33 39.24,23.41 61.58,23.41 10.15,0 20.3,-1.46 29.96,-4.27 30.64,-8.93 55.69,-29.09 76.89,-50.57 69.24,-70.26 109.99,-167.41 111.65,-266.02l-18.26 -0.3c-1.52,93.77 -40.53,186.73 -106.39,253.52 -20.16,20.46 -43.02,38.34 -68.98,45.84 -7.99,2.32 -16.47,3.54 -24.87,3.54 -18.58,0 -36.46,-5.93 -48.74,-18.12 -13.11,-13.05 -18.35,-29.52 -18.43,-48.63 -0.07,-27.84 12.07,-60.21 27,-86.43 125.3,-220.89 362.8,-355.91 601.96,-449l-6.63 -17.02z"/>
  <path class="fil4" d="M8117.87 4546.59c-201.25,-368.31 -583.92,-627.05 -998.05,-695.24 -12.57,-2.06 -25.18,-3.52 -37.77,-5.32 19.08,-102.08 27.53,-206.14 25.02,-309.97 -0.87,-35.93 -4.06,-74.53 -26.83,-102.36 -22.39,-27.35 -60.9,-38.53 -95.81,-32.92 -34.91,5.59 -66.17,26.11 -90.07,52.13 -65,70.73 -76.87,177.95 -54.24,271.29 4.65,19.17 17.59,60.98 36.02,105.61 -332.47,-4.62 -658.05,93.63 -928.02,296.06 -181.19,-570.41 -751.79,-993.38 -1350.26,-1000.89 -598.46,-7.52 -1140.49,405.54 -1335.97,971.21 -253.28,-218.24 -583.06,-342.16 -916.66,-356.25 0.24,-9.4 0.22,-19.36 -0.22,-30.11 -3.27,-80.05 -9.66,-159.95 -19.15,-239.46 -4.99,-41.66 -13.33,-87.69 -46.78,-113.02 -50.04,-37.88 -121.03,-7.05 -175.39,24.36 -55.72,32.21 -117.67,73.44 -124.98,137.39 -3.73,32.61 8.16,64.93 22.5,94.44 18.73,38.6 57.22,90.07 101.86,135.64 -76.04,9.22 -151.36,24.43 -225.07,45.83 -472.56,137.25 -864.53,524.67 -1007.26,995.61 -71.38,235.48 -115.1,519.16 23.76,722.3 138.84,203.15 364.57,329.42 592.76,421.46 588.25,237.29 1246.71,273.39 1865.65,134.6 322.58,322.67 762.1,525.8 1216.86,562.41 454.78,36.61 941.04,-87.86 1311.06,-354.77 391.07,150.79 819.62,227.65 1232.24,154.04 412.62,-73.59 806.45,-311.41 1010.34,-677.62 204.18,-366.7 195.73,-838.13 -5.55,-1206.44z"/>
  <path class="fil5" d="M371.12 5134.42c-31.1,125.44 -32.5,258.33 1.94,392.35 261.08,1015.91 1933.49,981.07 2637.98,501.74 73,-49.67 140.41,-107.56 197.49,-175.11 57,-67.46 101.84,-144.24 131.46,-227.53 150.68,-423.56 -108.26,-900.47 -461.39,-1131.89 -303.67,-198.98 -678.13,-318.36 -1041.91,-320.96 -121.71,-0.88 -243.72,10.86 -361.79,38.19 -449.97,104.2 -985.99,448.22 -1103.78,923.2z"/>
  <path class="fil5" d="M371.12 5134.42c-31.1,125.44 -32.5,258.33 1.94,392.35 261.08,1015.91 1933.49,981.07 2637.98,501.74 73,-49.67 140.41,-107.56 197.49,-175.11 57,-67.46 101.84,-144.24 131.46,-227.53 150.68,-423.56 -108.26,-900.47 -461.39,-1131.89 -303.67,-198.98 -678.13,-318.36 -1041.91,-320.96 -121.71,-0.88 -243.72,10.86 -361.79,38.19 -449.97,104.2 -985.99,448.22 -1103.78,923.2z"/>
  <path class="fil4" d="M2281.64 5428.28c-265.7,165.97 -585.01,244.52 -897.36,220.71 432.72,-73.71 827.17,-347.37 1047.74,-726.92 45.29,-77.95 84.02,-161.48 96.77,-250.74 12.74,-89.27 -2.95,-185.36 -57.69,-257.01 307.71,65.57 615.76,248.21 719.1,545.34 66.81,192.07 38.27,408.78 -47.62,593.08 -182.23,391.06 -605.9,633.01 -1034.8,679.58 -428.92,46.56 -1348.09,74.43 -1570.94,-610.64 103.12,81.86 174.34,128.74 305.28,160.18 122.53,29.45 248.59,43.64 374.56,43.34 249.97,-0.56 748.33,-58.84 1064.97,-396.93z"/>
  <path class="fil4" d="M1687.04 4262.47c-63.94,63.54 -110.93,143.97 -134.85,230.88 27.24,-50.04 72.25,-90.19 125.08,-111.54 47.95,143.53 93.22,302.49 92.16,453.83 25.67,-160.71 41.81,-328.06 36.41,-490.71 103.63,62.71 191.67,163.26 229.53,278.31 -11.8,-103.23 -32.42,-214.17 -63.36,-313.36 76.08,17.87 155.73,29.48 225.07,65.54 -61.47,-97.13 -159.36,-170.64 -269.78,-202.59l-240.25 89.65z"/>
  <path class="fil5" d="M1435.02 3784.67c-21.9,-66.1 -37.49,-139.53 -11.49,-204.1 33.22,-82.55 123.5,-125.63 208.7,-151.26 79.64,-23.96 164.3,-39.44 245.87,-23.3 173.09,34.23 294.77,216.13 286.29,392.37 -8.47,176.25 -129.27,335.34 -285.23,417.86 -233.78,123.72 -387.02,-259.36 -444.14,-431.57z"/>
  <path class="fil4" d="M1676.83 4066.8c-99.06,-104.13 -158.2,-245.34 -162.91,-388.98 41.67,131.28 120.21,250.03 216.19,348.81 -26.71,-110.45 -19.67,-223.3 14.99,-331.53 35.4,88.88 52.09,184.97 59.83,280.32 54.59,-111.58 114.02,-217.98 168.6,-329.57 13.07,150.03 -4.35,302.62 -50.87,445.84 51.01,-66.34 102.96,-133.29 138.8,-208.88 6.48,104.93 -45.87,203.47 -96.68,295.51 -0.91,-2.16 -1.8,-4.29 -2.72,-6.44l-285.23 -105.08z"/>
  <path class="fil6" d="M1578.29 4061.01c-34.53,11.32 -69.08,27.35 -92.14,55.43 -23.07,28.1 -31.52,70.75 -11.68,101.21 15.25,23.43 43.03,34.96 69.62,43.56 133.11,43.03 279.39,44.31 413.24,3.66 28.99,-8.8 58.3,-20.07 79.99,-41.23 21.69,-21.14 34.04,-54.37 23.01,-82.58 -11.52,-29.5 -43.59,-44.85 -73.38,-55.63 -132.92,-48.15 -274.13,-68.56 -408.66,-24.41z"/>
  <path class="fil7" d="M2038.86 4129.29c-45.33,-32.15 -102.43,-44.33 -158.03,-44.22 -55.58,0.11 -113.24,12.82 -167.62,24.3 85.56,-7.45 178.94,6.76 259.78,35.81 -122.42,20.1 -247.6,23.39 -370.91,9.73 104.73,41.68 217.83,59.13 330.1,69.32 -41.53,28.73 -87.22,51.47 -135,68.86 54.26,-3.16 108.16,-12.41 160.16,-28.22 28.99,-8.8 58.3,-20.07 79.99,-41.23 18.99,-18.49 30.82,-46.28 26.08,-71.82 -7.07,-8.6 -15.65,-16.22 -24.54,-22.51z"/>
  <path class="fil8" d="M944.63 4788.54c-2.3,79.1 -4.61,158.17 -6.9,237.25 113.68,-266.59 296.48,-503.36 525.63,-680.81 -269.94,30.95 -525.86,170.64 -697.93,380.92 -172.06,210.32 -258.29,488.84 -235.16,759.57 31.96,-275.18 199.63,-521.86 414.36,-696.93z"/>
  <path class="fil8" d="M1601.12 4357.81c-70.02,69.31 -115.21,163.23 -125.69,261.2 -12.57,-52.47 -15.87,-102.97 7.09,-151.82 22.96,-48.82 70.16,-85.6 118.6,-109.38z"/>
  <path class="fil8" d="M1708.49 4921.96c25.65,-173.88 12.07,-353.41 -39.48,-521.43 13.49,170.16 26,351.24 39.48,521.43z"/>
  <path class="fil8" d="M2063.93 4811.44c-12.11,-162.61 -96.62,-318.5 -226.28,-417.37 67.19,144.35 143.77,281.2 226.28,417.37z"/>
  <path class="fil9" d="M4283.37 1477.16l544.1 -1009.54c-85.25,-48.86 -165.2,-121.12 -138.78,-187.19l-649.96 1200.8c0,0 107.49,-120.42 244.64,-4.08z"/>
  <path class="fil10" d="M5905.74 1378.6c-13.56,17.72 -40.2,25.73 -79.15,23.76 -303.31,-15.27 -1056.48,-582.64 -1175.42,-775.34 -10.97,-17.82 -34.34,-23.34 -52.12,-12.34 -17.82,10.99 -23.35,34.34 -12.36,52.14 87.42,141.69 457.5,447.28 794.53,640.42 168.63,96.63 329.07,165.16 441.56,170.83 23.79,1.2 45.23,-0.49 64.41,-4.9 30.44,-38.83 34.37,-98.23 33.76,-132.32 -1.31,13.84 -6.31,26.16 -15.2,37.76z"/>
  <path class="fil11" d="M5401.15 1318.48l36.15 -67.45c-327.61,-185.87 -704.88,-492.35 -786.14,-624.01 -10.97,-17.82 -34.34,-23.34 -52.12,-12.34 -17.82,10.99 -23.35,34.34 -12.36,52.14 87.42,141.69 457.5,447.28 794.53,640.42 6.66,3.81 13.29,7.52 19.94,11.25z"/>
  <path class="fil5" d="M2820.41 2250.25c-20.74,-141.82 16.38,-291.26 101.04,-406.89 84.7,-115.65 215.96,-196.13 357.43,-219.18 0.4,-197.11 97.3,-381.33 270.52,-475.41 173.2,-94.1 397.5,-85.59 563.08,21.36 290.15,-232.68 695.1,-290.32 1043.25,-159.52 348.15,130.8 616.82,453.89 681.99,820.04 182.4,-89.19 482.42,184.1 246.8,612.64l-3264.1 -193.05z"/>
  <path class="fil4" d="M6166.05 2210.58c40.61,-289.03 -181.74,-451.6 -328.34,-379.92 -178.46,-542.27 -650.74,-671.15 -846.26,-679.77 237.56,145.44 408.31,395.61 457.19,669.86 27.27,152.98 4.12,312.47 -30.13,464.05 251.98,-48.95 495.42,-68.67 747.53,-74.22z"/>
  <path class="fil4" d="M2855.32 2122.12c83.07,-222.68 273.82,-402.34 501.1,-471.92 -126.08,137.41 -195.95,326.84 -194.03,513.31l-307.07 -41.39z"/>
  <path class="fil8" d="M3743.19 1174.93c-191.1,56.87 -342.03,230.69 -371.54,427.88 84.26,-164.87 231.15,-307.14 371.54,-427.88z"/>
  <path class="fil8" d="M4894.19 1096c-308.55,32.75 -595.88,224.65 -744.34,497.12 5,-117.29 37.12,-223.97 113.64,-313.02 -126.05,80.49 -254.57,188.21 -341.32,310.01 47.58,-195.36 192.39,-355.71 368.27,-453.14 175.89,-97.43 412.91,-104.25 603.75,-40.97z"/>
  <path class="fil12" d="M5467.22 1195.21c-92.45,-78.59 -197.74,-141.85 -311.49,-184.59 -45.79,-17.2 -92.51,-31.14 -139.89,-41.85 -7.76,-5.95 -15.47,-11.92 -23.12,-17.86l0 -318.28 -254.17 0 88.94 -165.02c-85.25,-48.86 -165.2,-121.12 -138.78,-187.19 17.13,-29.89 46.83,-42.85 85.56,-42.85 209.81,0 683.59,381.01 846.72,517.62 33.04,27.68 42.12,74.69 21.75,112.69l-175.5 327.32z"/>
  <path class="fil13" d="M4560.41 963.15l106.52 -197.65c50.89,53.57 118.5,115.49 196.34,179.99 -29.39,-2.36 -58.8,-3.54 -88.21,-3.54 -72.11,0 -144.13,7.1 -214.65,21.2zm432.3 -12.23c-120.44,-93.69 -223.74,-185.21 -287.88,-255.74l33.7 -62.54 254.17 0 0 318.28z"/>
  <path class="fil14" d="M4260.45 1071.64l428.25 -791.21c-26.42,66.06 53.53,138.32 138.78,187.19l-88.94 165.02 -33.7 62.54c-21.62,-23.77 -38.8,-45.17 -50.67,-63.45 0,0 0,0 -0.02,-0.02 -0.16,-0.28 -0.33,-0.51 -0.49,-0.77 -0.02,-0.02 -0.02,-0.02 -0.02,-0.04 -0.07,-0.1 -0.16,-0.24 -0.24,-0.37 0,0 -0.01,-0.01 -0.01,-0.01 -0.16,-0.26 -0.31,-0.51 -0.47,-0.75 -0.02,-0.02 -0.04,-0.04 -0.04,-0.05 -0.07,-0.11 -0.14,-0.22 -0.22,-0.35 0,0 -0.02,-0.02 -0.02,-0.03 -0.07,-0.13 -0.16,-0.26 -0.24,-0.37 0,-0.03 -0.01,-0.03 -0.01,-0.04 -0.07,-0.11 -0.14,-0.22 -0.22,-0.33 0,-0.02 -0.02,-0.04 -0.04,-0.08 -0.07,-0.1 -0.14,-0.24 -0.22,-0.34l0 0c-0.08,-0.12 -0.15,-0.26 -0.24,-0.39 0,-0.01 -0.01,-0.03 -0.03,-0.05 -0.05,-0.09 -0.11,-0.2 -0.18,-0.3 -0.02,-0.01 -0.03,-0.07 -0.06,-0.09 -0.07,-0.11 -0.14,-0.22 -0.22,-0.35l0 0c-7.15,-11.62 -19.57,-18.01 -32.28,-18.01 -6.77,0 -13.66,1.83 -19.84,5.66 -11.63,7.16 -18.03,19.59 -18.03,32.32 0.02,6.77 1.85,13.64 5.66,19.82 16.92,27.43 44.45,60.99 80.24,98.69l-106.52 197.65c-104.58,20.91 -205.97,57.16 -299.96,108.49z"/>
  <path class="fil15" d="M4654.17 631.73c0,0 -0.02,0 -0.02,-0.02 0.02,0.02 0.02,0.02 0.02,0.02zm-0.51 -0.79c-0.02,-0.02 -0.02,-0.02 -0.02,-0.04 0,0.02 0,0.02 0.02,0.04zm-0.26 -0.41c0,0 -0.01,-0.01 -0.01,-0.01 0,0 0.01,0.01 0.01,0.01zm-0.49 -0.76c-0.02,-0.02 -0.04,-0.04 -0.04,-0.05 0,0.01 0.02,0.03 0.04,0.05zm-0.26 -0.4c0,0 -0.02,-0.02 -0.02,-0.03 0,0.01 0.02,0.03 0.02,0.03zm-0.26 -0.4c0,-0.03 -0.01,-0.03 -0.01,-0.04 0,0.01 0.01,0.01 0.01,0.04zm-0.23 -0.37c0,-0.02 -0.02,-0.05 -0.04,-0.08 0.02,0.04 0.04,0.06 0.04,0.08zm-0.26 -0.42l0 0zm-0.24 -0.39c0,-0.01 -0.01,-0.03 -0.03,-0.05 0.02,0.02 0.03,0.04 0.03,0.05zm-0.22 -0.35c-0.02,-0.01 -0.03,-0.05 -0.06,-0.09 0.03,0.01 0.04,0.07 0.06,0.09z"/>
  <path class="fil12" d="M5015.83 968.77c-50.34,-11.39 -101.35,-19.14 -152.56,-23.28 -77.84,-64.51 -145.45,-126.43 -196.34,-179.99 -35.8,-37.7 -63.32,-71.26 -80.24,-98.69 -3.81,-6.19 -5.64,-13.05 -5.66,-19.82 0,-12.73 6.39,-25.16 18.03,-32.32 6.19,-3.83 13.07,-5.66 19.84,-5.66 12.7,0 25.13,6.39 32.28,18.01l0 0c0.07,0.12 0.14,0.24 0.22,0.35 0.03,0.04 0.04,0.07 0.06,0.09 0.07,0.1 0.13,0.2 0.18,0.3 0.02,0.02 0.03,0.04 0.03,0.05 0.09,0.13 0.16,0.26 0.24,0.39l0 0c0.07,0.1 0.14,0.24 0.22,0.34 0.02,0.03 0.04,0.06 0.04,0.08 0.07,0.11 0.14,0.22 0.22,0.33 0,0.01 0.01,0.01 0.01,0.04 0.08,0.1 0.17,0.24 0.24,0.37 0,0.01 0.02,0.03 0.02,0.03 0.07,0.12 0.14,0.24 0.22,0.35 0,0.01 0.02,0.03 0.04,0.05 0.16,0.24 0.31,0.49 0.47,0.75 0,0 0.01,0.01 0.01,0.01 0.08,0.13 0.17,0.26 0.24,0.37 0,0.02 0,0.02 0.02,0.04 0.16,0.26 0.33,0.49 0.49,0.77 0,0.02 0.02,0.02 0.02,0.02 11.86,18.28 29.04,39.67 50.67,63.45 64.14,70.53 167.44,162.05 287.88,255.74 7.65,5.93 15.36,11.9 23.12,17.86z"/>
  <path class="fil16" d="M4959.23 2142.69c-756.34,-112.31 -975.16,-564.62 -920.5,-661.46l27.64 -51.07c61.93,-56.43 129.87,-107.12 197.12,-150.06 -76.52,89.05 -108.64,195.73 -113.64,313.02 148.46,-272.47 435.79,-464.37 744.34,-497.12 -81.11,-26.9 -170.52,-41.13 -260.07,-41.13 -121.15,0 -242.54,26.08 -343.68,82.09 -34.98,19.39 -68.76,41.26 -100.77,65.41l70.77 -130.73c94,-51.33 195.38,-87.59 299.96,-108.49 70.52,-14.1 142.54,-21.2 214.65,-21.2 29.41,0 58.82,1.18 88.21,3.54 51.21,4.14 102.23,11.88 152.56,23.28 47.38,10.7 94.1,24.65 139.89,41.85 113.75,42.75 219.05,106.01 311.49,184.59l-49.94 93.17c-163.61,-99.34 -328.79,-133.23 -425.82,-137.5 132.08,80.86 243.51,194.12 324.83,325.87l-357.05 665.94z"/>
  <path class="fil17" d="M5316.29 1476.76c-81.33,-131.75 -192.75,-245.01 -324.83,-325.87 97.03,4.27 262.21,38.16 425.82,137.5l-100.99 188.37z"/>
  <path class="fil18" d="M4149.85 1593.12c5,-117.29 37.12,-223.97 113.64,-313.02 -67.25,42.94 -135.19,93.63 -197.12,150.06l123.3 -227.79c32.01,-24.14 65.79,-46.01 100.77,-65.41 101.14,-56.01 222.53,-82.09 343.68,-82.09 89.55,0 178.96,14.23 260.07,41.13 -308.55,32.75 -595.88,224.65 -744.34,497.12z"/>
  <path class="fil19" d="M4536.9 560.93c0,0 -57.1,84.03 135.49,194.42l99.31 -180.5c0,0 -176.08,-117.81 -234.8,-13.92z"/>
  <path class="fil11" d="M4585.77 487.48c-4.69,12.76 -8.69,25.82 -12.2,38.98 -14.5,6.63 -27.15,17.59 -36.68,34.47 0,0 -57.1,84.03 135.49,194.42l21.07 -36.75 -0.6 -0.38c-11.69,-7.34 -24.14,-19.17 -30.47,-31.52 -6.19,-12.07 -6.54,-28.17 2.8,-38.03 20.34,-21.48 61.58,2.13 83.33,11.38 33.76,14.37 65.67,32.69 97.09,51.53 144.61,86.69 281.49,186.25 408.48,297.15 44.39,38.76 87.07,57.79 144.55,38.36 29.2,-9.88 57.91,-24.82 83.06,-42.73 0,0 -531.83,-496.88 -895.92,-516.88z"/>
  <path class="fil20" d="M5566.27 1010.48l76.45 -142.56c20.38,-38.01 11.29,-85.03 -21.75,-112.71 -193.24,-161.83 -822.35,-666.56 -932.27,-474.77l-151.8 280.5c145.8,-98.92 659.51,289.83 892.23,477.44 44.35,35.77 110.22,22.33 137.14,-27.9z"/>
  <path class="fil19" d="M4594.51 545.15c61.63,-1.08 147.53,31.52 242.81,81.94 16.39,-30.89 32.84,-61.78 49.3,-92.64 29.16,-54.66 58.61,-109.14 87.39,-164.03 -22.76,-11.35 -45.87,-21.89 -69.4,-31.22 -46.18,-18.35 -94.86,-32.47 -143.13,-36.68 -13.29,-1.17 -26.33,-1.25 -39.22,-0.64 -19.1,37.86 -38.27,75.69 -57.96,113.26 -22.84,43.6 -46.17,86.88 -69.78,130.02z"/>
  <path class="fil19" d="M5040.53 733.95c18.32,-32.75 36.19,-65.79 53.79,-98.96 25.22,-47.54 49.55,-95.6 73.14,-144.06 -9.97,-7.25 -20.01,-14.42 -30.14,-21.51 -24.83,49.47 -49.77,98.85 -75.81,147.66 -17.33,32.5 -35.04,64.82 -52.91,97 -2.07,3.67 -4.13,7.32 -6.18,10.98 10.48,6.79 20.98,13.64 31.47,20.6 2.19,-3.91 4.44,-7.8 6.64,-11.71z"/>
  <path class="fil19" d="M4989.75 689.68c15.32,-30.86 30.82,-61.62 46.47,-92.3 24.79,-48.53 51.85,-96.35 75.1,-145.86 -28.76,-19.36 -58.2,-37.71 -88.29,-54.78 -29.87,48.79 -55.67,100.55 -81.98,151.25 -15.26,29.44 -30.38,58.96 -45.33,88.56 -2.94,5.85 -6.12,11.7 -9.32,17.61 30.53,17.45 61.74,36.37 93.12,56.25 3.41,-6.9 6.8,-13.83 10.24,-20.72z"/>
  <path class="fil19" d="M5572.01 906.17c-22.46,39.16 -72.39,52.71 -111.54,30.27 -39.16,-22.44 -52.71,-72.38 -30.3,-111.54 22.46,-39.14 72.4,-52.71 111.56,-30.27 39.14,22.44 52.69,72.39 30.27,111.54z"/>
  <path class="fil21" d="M5993.84 1300.05c-16.98,-88.62 -102.85,-194.69 -255.24,-315.25 -109.97,-87.02 -213.7,-149.2 -218.06,-151.82 -18.3,-10.58 -41.24,-4.83 -51.98,13.11 -10.74,17.99 -4.88,41.25 13.11,51.99 112.44,67.14 410.23,272.8 437.72,416.25 1.82,9.48 2.36,18.28 1.55,26.53 0.61,34.08 -3.32,93.47 -33.76,132.3 33.49,-7.7 59.89,-23.85 78.73,-48.46 27.52,-35.93 36.92,-77.86 27.92,-124.66z"/>
  <path class="fil22" d="M5822.77 1478.06c23.79,1.2 45.23,-0.49 64.41,-4.9 30.44,-38.83 34.37,-98.23 33.76,-132.32 -1.31,13.84 -6.31,26.16 -15.2,37.76 -10.76,14.02 -29.8,21.86 -56.53,23.59 -7.67,22.38 -19.92,47.89 -38.95,74.84 4.18,0.37 8.45,0.83 12.51,1.03z"/>
  <path class="fil23" d="M6185.68 1482.47l-115.02 69.9 -144.64 -238.08 114.98 -69.89c12.13,-7.34 26.29,-8.64 38.78,-4.6 10.6,3.26 20.09,10.24 26.31,20.48l95.4 157c13.64,22.44 6.52,51.62 -15.81,65.18z"/>
  <path class="fil8" d="M6030.44 1486.18l-104.43 -171.89 114.98 -69.89c12.13,-7.34 26.29,-8.64 38.78,-4.6 13.22,18.07 38.51,56.54 90.58,142.25 0,0 -23.99,0.09 -65.79,21.98 -41.74,21.71 -78.27,50.43 -74.13,82.15z"/>
  <path class="fil23" d="M6017.11 1421.87c-1.97,-3.2 -0.93,-7.38 2.28,-9.33l107.1 -65.08c3.22,-1.96 7.4,-0.93 9.35,2.28 1.96,3.21 0.95,7.4 -2.28,9.35l-107.1 65.07c-3.22,1.95 -7.4,0.94 -9.35,-2.28z"/>
  <path class="fil23" d="M6052.79 1480.61c-1.94,-3.22 -0.93,-7.4 2.28,-9.35l107.12 -65.09c3.22,-1.94 7.38,-0.93 9.35,2.28 1.94,3.22 0.93,7.4 -2.28,9.35l-107.11 65.09c-3.23,1.95 -7.41,0.93 -9.36,-2.28z"/>
  <path class="fil23" d="M5981.44 1363.17c-1.98,-3.23 -0.93,-7.4 2.28,-9.37l107.1 -65.07c3.22,-1.95 7.4,-0.93 9.34,2.28 1.96,3.22 0.93,7.4 -2.28,9.34l-107.12 65.1c-3.2,1.94 -7.4,0.91 -9.33,-2.28z"/>
  <path class="fil24" d="M5968.59 1870.77l-765.37 465.06c-24.19,14.71 -55.91,7.07 -70.66,-17.23l-318.79 -524.64c-14.72,-24.19 -6.96,-55.98 17.24,-70.68l765.37 -465.07c73.73,-44.79 169.56,-21.51 214.37,52.24l210.24 345.99c44.73,73.6 21.33,169.53 -52.4,214.33z"/>
  <path class="fil1" d="M5515.58 2015.66c-116.58,70.82 -268.49,33.74 -339.33,-82.82 -70.85,-116.58 -33.74,-268.51 82.81,-339.34 116.58,-70.84 268.49,-33.76 339.34,82.8 70.84,116.58 33.76,268.51 -82.82,339.36z"/>
  <path class="fil23" d="M6043.5 1731.15c-60.89,-75.61 -125.16,-148.5 -192.93,-217.99 18.93,44.95 35.74,87.05 44.33,135.1 -209.33,130.47 -413.2,261.22 -622.51,391.7 152.82,-82.09 324.21,-171.36 477.05,-253.42 -143.38,106.02 -272.38,232.63 -438.56,297 -81.9,31.71 -163.8,63.45 -245.72,95.18 -26.58,-34.1 -53.19,-68.21 -79.78,-102.34l147.18 242.22c14.75,24.3 46.47,31.94 70.66,17.23l765.37 -465.06c50.27,-30.54 77.05,-84.82 74.91,-139.62z"/>
  <path class="fil3" d="M5289.12 2030.99c109.35,-58.59 227.21,-120.47 340.63,-180.65 2.37,-12.56 3.9,-25.25 4.3,-38.07 -115.06,72.72 -230,145.44 -346.43,218.11l1.5 0.6z"/>
  <path class="fil3" d="M5619.81 1887.7c-76.1,60.52 -152.73,119.46 -238.11,163.61 45.59,1.08 92,-10.22 133.87,-35.68 50.39,-30.59 85.85,-76.41 104.23,-127.93z"/>
  <polygon class="fil11" points="5498.01,1893.78 5453.66,1820.76 5526.68,1776.4 5476.5,1693.87 5403.5,1738.23 5359.16,1665.22 5276.63,1715.38 5321,1788.39 5247.98,1832.74 5298.13,1915.27 5371.13,1870.9 5415.51,1943.91 "/>
  <path class="fil3" d="M6064.57 1601.59l-56.17 34.14 -185.14 -304.71 56.16 -34.12c14.54,-8.84 33.43,-4.23 42.25,10.32l153.3 252.24c8.74,14.42 4.14,33.3 -10.41,42.14z"/>
  <path class="fil1" d="M5951.52 1542.1l-128.25 -211.09 56.16 -34.12c14.54,-8.84 33.43,-4.23 42.25,10.32l112.31 184.79c0,0 -22.57,-35.02 -40.59,-24.06 -17.91,10.86 -51.76,31.44 -51.76,31.44 0,0 -10.39,9.34 9.88,42.73z"/>
  <polygon class="fil3" points="6263.16,1325.67 6177.46,1377.74 6130.17,1299.94 6215.89,1247.86 "/>
  <path class="fil1" d="M6263.16 1325.67c0,0 -28.7,-45.94 -115.32,3.34l-17.67 -29.07 85.49 -51.94 47.5 77.67z"/>
  <path class="fil1" d="M6482.65 1497.41l-20.61 3.28 -21.64 3.43 -79.95 -109.86c0,0 -55.8,-1.92 -71.63,-26.38 -15.76,-24.36 -108.4,-178.41 -108.4,-178.41 0,0 -6.21,-39.54 31.24,-58.65 0,0 18.38,20.05 38.47,40.5l3.58 3.54 0.28 0.17c9.13,9.25 18.41,18.26 26.39,25.36 26.54,23.52 123.37,74.09 142.74,141.61 3.43,11.94 7.47,24.6 11.94,37.17l0.12 0.24c20.36,58.66 47.47,117.99 47.47,117.99z"/>
  <path class="fil3" d="M6482.65 1497.41l-20.61 3.28 -21.64 3.43 -79.95 -109.86c0,0 -55.8,-1.92 -71.63,-26.38 -15.76,-24.36 -108.4,-178.41 -108.4,-178.41 0,0 -6.21,-39.54 31.24,-58.65l67.99 133.38 83.13 67.63 119.86 165.57z"/>
  <path class="fil24" d="M6435.05 1379.19c-3.69,-5.24 -57.02,-83.04 -60.38,-86.23 -3.51,-3.14 -83.9,-69.4 -83.9,-69.4l-37.06 -48.68 0.28 0.17c9.13,9.25 18.41,18.26 26.39,25.36 26.54,23.52 123.37,74.09 142.74,141.61 3.43,11.94 7.47,24.6 11.94,37.17z"/>
  <path class="fil4" d="M4731.12 2234.74c-34.52,-95.97 -49.26,-200.83 -28.99,-300.77 20.26,-99.95 78.04,-194.31 165.24,-247.18 87.22,-52.87 204.19,-58.9 290.55,-4.67 82.36,51.72 126.33,146.43 158.06,238.34 90.6,-172.65 288.1,21.62 289.04,148.99 -0.47,-62.68 47.08,-120.55 106.9,-139.26 59.83,-18.7 127.81,-1 176.27,38.76 81.5,66.88 114.64,188.81 115.59,289.58l-1272.66 -23.79z"/>
  <path class="fil24" d="M3636.99 2335.79l161.97 -410.96c14.59,-37.06 0.78,-79.2 -32.97,-100.33 -153.04,-95.79 -587.12,-341.55 -1016.32,-344.64l-91.71 232.7 -91.71 232.7c315.92,290.55 800.94,407 978.2,441.38 39.09,7.59 77.96,-13.8 92.55,-50.85z"/>
  <path class="fil23" d="M3636.99 2335.79l142.75 -362.19c-254.14,67.93 -522.95,80.45 -782.24,36.03 -62.68,-10.75 -125.63,-25.07 -181.91,-54.64 -179.4,-94.38 -107.27,-281.35 2.27,-419.91 13.66,-17.26 27.9,-33.7 42.3,-49.19 -36.75,-3.6 -73.63,-5.77 -110.48,-6.02l-91.71 232.7 -91.71 232.7c315.92,290.55 800.94,407 978.2,441.38 39.09,7.59 77.96,-13.8 92.55,-50.85z"/>
  <path class="fil20" d="M2559.29 1455.25l-149.02 378.11c-9.5,24.1 2.34,51.34 26.45,60.86l129.52 51.05 183.43 -465.4 -129.52 -51.05c-24.12,-9.51 -51.36,2.34 -60.86,26.45z"/>
  <path class="fil19" d="M2505.05 1690.89c-18.46,-7.26 -27.53,-28.13 -20.27,-46.61 7.29,-18.46 28.16,-27.53 46.64,-20.25 18.46,7.26 27.53,28.14 20.24,46.6 -7.26,18.47 -28.13,27.55 -46.61,20.26z"/>
  <path class="fil25" d="M2448.32 1736.81l72.93 -184.99c18.46,7.27 27.53,28.14 20.24,46.6l-46.55 118.13c-7.26,18.48 -28.14,27.53 -46.62,20.26z"/>
  <path class="fil19" d="M2602.72 1852.75l146.96 -372.89 -20.49 -8.07 -146.96 372.91 -109.06 -42.98c-24.1,-9.52 -35.93,-36.76 -26.44,-60.86l-36.46 92.49c-9.5,24.1 2.34,51.34 26.45,60.86l109.06 42.98 20.47 8.06 36.47 -92.51z"/>
  <path class="fil11" d="M3721.53 1901.72c0,0 -214.59,-162.94 -443.12,-248.84 -228.53,-85.88 -445.66,-83.42 -445.66,-83.42l888.78 332.26z"/>
  <path class="fil20" d="M3077.12 2146.87c-128.72,-50.72 -191.95,-196.2 -141.23,-324.94 50.75,-128.72 196.22,-191.96 324.95,-141.21 128.74,50.72 191.97,196.2 141.23,324.92 -50.75,128.74 -196.23,191.97 -324.95,141.23z"/>
  <path class="fil19" d="M2997.5 2009.63c-21.64,-3.71 -43.31,-7.91 -64.72,-12.96 23.28,66.24 73.9,122.46 144.35,150.21 118.92,46.87 251.95,-3.66 311.56,-113.07 -130.76,5.91 -262.17,-2.06 -391.18,-24.18z"/>
  <path class="fil1" d="M4357.61 2763.13c25.11,12.33 52.61,10.06 78.9,3.01 57.19,-15.32 113.42,-36.44 168.1,-59.06 229.73,-95.09 500.63,-259.46 643.55,-468.64 19.57,-28.63 29.73,-65.93 17.99,-98.58 -8.24,-22.9 -25.98,-40.86 -43.22,-58.05 -183.58,-183 -360.8,-371.66 -538.87,-560.04 -93.36,-98.76 -187.95,-196.49 -279.9,-296.55 -80.92,-88.06 -158.74,-186.77 -180.01,-307.63 -9.05,-51.43 -6.86,-104.56 10.79,-153.97 18.51,-51.76 52.02,-96.35 88.08,-137.18 71.99,-81.52 156.95,-153.5 198.16,-257.04 37.48,-94.17 39.4,-201.73 5.02,-297.06 -10.21,-28.32 -25.34,-55.39 -55.33,-65.87 -25.23,-8.84 -54.06,-6.87 -80.2,-4.26 -53.65,5.39 -105.59,23.14 -154.16,46.03 -50.88,24.03 -98.72,53.92 -146.05,84.23 -53,33.96 -106.01,68 -157.12,104.8 -103.17,74.29 -195.76,160.62 -260.05,271.37 -30.34,52.27 -56.78,107.15 -92.69,155.98 -17.58,23.9 -37.59,45.94 -61.23,64.01 -24.3,18.59 -54.03,28.36 -77.83,47.47 -25.18,20.22 -42.67,49.43 -61.31,75.34 -19.56,27.19 -39.11,54.39 -58.67,81.57 -40,55.63 -80.01,111.27 -120.03,166.9 -7.72,10.72 -17.22,21.41 -22.2,33.78 -5.15,12.78 -1.83,24.52 4.96,35.8 16.89,27.97 34.77,55.5 53,82.6 37.36,55.52 78.9,108.43 130.23,151.76 50.12,42.35 104.98,77.16 149.84,125.66 46.09,49.84 84.12,106.48 120.19,163.79 143.68,228.18 287.28,456.2 436.63,680.75 74.68,112.23 148.84,225.2 226.93,335.08 15.13,21.29 32.63,42.27 56.49,53.99z"/>
  <path class="fil26" d="M5222.93 2081.82c-183.58,-183 -360.8,-371.66 -538.87,-560.04 -93.36,-98.76 -187.95,-196.49 -279.9,-296.55 -80.92,-88.06 -158.74,-186.77 -180.01,-307.63 -9.05,-51.43 -6.86,-104.56 10.79,-153.97 18.51,-51.76 52.02,-96.35 88.08,-137.18 45.04,-50.99 95.14,-98.24 136.44,-151.85l-4.54 2.57c-53.69,32.7 -102.21,66.22 -146.71,111.22 -117.91,119.22 -176.08,284.97 -163.92,452.22 15.01,206.39 122.67,396.22 257.17,553.5 169.64,198.39 385.88,356.66 626.26,458.36 -40.5,36.95 -81.01,73.93 -121.53,110.89 92.19,-12.4 184.38,-24.79 276.58,-37.17 -10.26,90.79 -33.41,180.04 -67.93,264.67 51,-47.56 96.46,-98.47 133.32,-152.41 19.57,-28.63 29.73,-65.95 17.99,-98.58 -8.24,-22.9 -25.98,-40.86 -43.22,-58.05z"/>
  <path class="fil2" d="M4702.76 1897.98c-311.91,-17.26 -619.47,-109.99 -887.21,-267.47 20.83,68.48 55.19,120.53 117.18,159.03 61.99,38.51 133.21,60.52 204.71,77.07 189.4,43.84 373.16,59.89 565.32,31.37z"/>
  <path class="fil3" d="M4074.19 2374.06c74.68,112.23 148.84,225.2 226.93,335.08l1.13 1.52c164.09,-4.6 349.6,-71.53 487.58,-158.65 72.47,-45.74 138.58,-101.56 195.83,-165.29 28.59,-31.88 55,-65.73 78.84,-101.29 7.96,-11.83 51.74,-103.6 60.08,-104.29 -210.55,17.55 -423.46,6.65 -631.12,-32.34 153.3,-10.17 304.49,-51.18 441.94,-119.86 -236.37,-21.25 -471.7,-53.88 -704.93,-97.75 -107.38,-20.2 -216.64,-43.53 -314.68,-93.54 -85.98,-43.86 -134.86,-114 -190.73,-190.74 -101.81,-139.83 -208.8,-339.37 -87.15,-500.33 55.21,-73.04 140.26,-117.08 204.97,-181.85 112.1,-112.31 153.06,-274.59 211.83,-421.99 81.92,-205.53 236.46,-319.93 425.79,-418.38 11.18,-5.81 32.26,-18 53.48,-26.69 -2.43,-8.49 -4.78,-17 -7.8,-25.31 -10.21,-28.32 -25.34,-55.39 -55.34,-65.87 -25.22,-8.84 -54.05,-6.87 -80.19,-4.26 -53.65,5.39 -105.59,23.14 -154.16,46.03 -50.88,24.03 -98.72,53.92 -146.05,84.23 -53,33.96 -106.01,68 -157.12,104.8 -103.17,74.29 -195.76,160.62 -260.05,271.37 -30.34,52.27 -56.78,107.15 -92.69,155.98 -17.58,23.9 -37.59,45.94 -61.23,64.01 -24.3,18.59 -54.03,28.36 -77.83,47.47 -25.18,20.22 -42.67,49.43 -61.31,75.34 -19.56,27.19 -39.11,54.39 -58.67,81.57 -40,55.63 -80.01,111.27 -120.03,166.9 -7.72,10.72 -17.22,21.41 -22.2,33.78 -5.15,12.78 -1.83,24.52 4.96,35.8 16.89,27.97 34.77,55.5 53,82.6 37.36,55.52 78.9,108.43 130.23,151.76 50.12,42.35 104.98,77.16 149.84,125.66 46.09,49.84 84.12,106.46 120.19,163.79 143.68,228.18 287.28,456.2 436.63,680.75z"/>
  <path class="fil4" d="M3179.35 1133.7c-5.16,12.78 -1.84,24.52 4.95,35.8 16.89,27.97 34.77,55.5 53,82.6 8.81,13.07 17.86,25.94 27.19,38.62 0.61,-2.76 3.87,-19.52 3.44,-18.35 2.08,-8.07 8.16,-29.2 12.05,-40.72 11.28,-33.41 18.13,-48.65 32.42,-72.79 18.35,-31.04 40.11,-59.77 63.03,-87.53 44.5,-53.96 95.64,-103.78 144.97,-161.57 47.82,-56 90.56,-116.05 132.76,-176.33 81.94,-117.04 161,-226.84 263.37,-321.75 106.6,-98.81 219.8,-176.21 349.85,-237.41 29.71,-13.99 60.07,-26.52 90.89,-37.84 28.01,-10.3 45.01,-15.5 81.66,-22.91 17.28,-3.49 34.74,-6.25 52.29,-8.02 4.62,-0.48 9.24,-0.86 13.87,-1.19 1.45,0.11 15.12,-0.3 16.93,-0.28 4.71,0 9.4,0.28 14.11,0.44 -2.93,-10.82 -6.11,-21.6 -9.93,-32.15 -10.21,-28.32 -25.34,-55.39 -55.33,-65.87 -25.23,-8.84 -54.06,-6.87 -80.2,-4.26 -53.65,5.39 -105.59,23.14 -154.16,46.03 -50.88,24.03 -98.72,53.92 -146.05,84.23 -53,33.96 -106.01,68 -157.12,104.8 -103.17,74.29 -195.76,160.62 -260.05,271.37 -30.34,52.27 -56.78,107.15 -92.69,155.98 -17.58,23.9 -37.59,45.94 -61.23,64.01 -24.3,18.59 -54.03,28.36 -77.83,47.47 -25.18,20.22 -42.67,49.43 -61.31,75.34 -19.56,27.19 -39.11,54.39 -58.67,81.57 -40,55.63 -80.01,111.27 -120.03,166.9 -7.72,10.72 -17.22,21.41 -22.19,33.78z"/>
  <path class="fil5" d="M4464.55 4.92c-23.68,-6.55 -49.87,-5.09 -73.89,-2.7 -53.65,5.39 -105.59,23.14 -154.16,46.03 -50.88,24.03 -98.72,53.92 -146.05,84.23 -53,33.96 -106.01,68 -157.12,104.8 -92.69,66.75 -176.66,143.38 -239.41,238.56 27.27,29.83 55.27,59.07 83.91,87.62 42.61,-53.64 87.76,-104.55 138.69,-151.76 106.6,-98.81 219.8,-176.21 349.85,-237.41 29.71,-13.99 60.07,-26.52 90.89,-37.84 28.01,-10.3 45.01,-15.5 81.66,-22.91 8.98,-1.83 18,-3.4 27.07,-4.78 -2.61,-34.55 -3.06,-69.22 -1.44,-103.84z"/>
  <path class="fil5" d="M3522.55 2361.32c-45.22,-70.04 -38.4,-169.55 15.98,-232.76 54.37,-63.21 151.73,-84.86 227.75,-50.63 -17.74,-62.71 -40.37,-132.96 -13.95,-194.87 22.77,-53.35 58.84,-100.93 101.68,-139.79 86.78,-78.65 204.97,-123.96 322.34,-119.72 192.42,6.98 370.09,135.53 456.51,307.58 -14.44,-28.74 199.93,-102.42 221.63,-106.88 83.86,-17.24 172.15,-14.3 254.42,9.53 164.42,47.6 318.9,192.15 304.84,375.41l-1891.2 152.13z"/>
  <path class="fil25" d="M2703.46 1495.62c-29.39,-36.5 -81.38,-53.09 -126.49,-40.36 43.6,12.92 82.89,27.46 126.49,40.36z"/>
  <path class="fil1" d="M7772.82 4328.46c-1.57,2.08 -3.52,4.4 -5.95,6.79 -24,23.28 -90.01,99.82 -96.81,136.74 -5.16,27.92 -23.74,57.39 -38.45,77.71 -4.84,6.77 -9.2,12.62 -12.59,16.98 0,0 -0.89,1.27 -2.68,3.54 -1.24,1.68 -2.98,3.81 -5.06,6.67l-1.57 2.08c-2.92,3.73 -6.34,8.18 -10.08,13.33 -1.59,1.8 -3.16,3.89 -4.79,6.1 -1.95,2.59 -4.16,5.39 -6.35,8.47 -1.77,2.24 -3.47,4.57 -5.39,7.05 -2.19,2.8 -4.26,5.64 -6.5,8.53l-1.67 2.32 -3.09 4.07c-3.2,4.28 -6.56,8.64 -9.88,13.17 -2.12,2.64 -4.36,5.55 -6.44,8.4 -1.52,1.97 -3.09,4.05 -4.53,6.18 -1.92,2.51 -3.87,5.12 -5.79,7.6 -2.81,3.76 -5.79,7.6 -8.58,11.36 -1.74,2.43 -3.6,4.82 -5.34,7.24 -5.05,6.67 -9.91,13.29 -14.8,19.89 -1.96,2.59 -3.87,5.09 -5.83,7.72l-0.05 0.11c-1.98,2.59 -4,5.33 -5.85,7.98 -4.69,6.26 -9.2,12.36 -13.45,18.26 -1.63,2.21 -3.2,4.29 -4.76,6.39 -9.26,12.75 -17.44,24.16 -23.64,33.23l-1.96 2.91c-5.04,7.24 -8.62,12.91 -10.51,16.27 -15.8,29.05 -55.42,134.6 -55.42,134.6 0,0 -21.52,145.59 -35.97,398.16 -159.11,74.72 -351.74,46.19 -425.96,-12.28 0,0 9.68,-251.67 25.53,-430.87 -0.46,-4.32 -0.87,-9.07 -1.29,-14.12 -0.22,-2.52 -0.43,-5.03 -0.7,-7.72 -0.54,-5.37 -0.98,-11 -1.53,-16.92l-0.33 -2.85c-0.15,-2.08 -0.3,-4.14 -0.57,-6.24 -10.37,-117.37 -28.62,-325.44 -31.68,-388.85 -4.31,-90.14 -11.41,-329.93 0.73,-355.22l1.09 -2.03c10.74,-19.98 32.81,-26.57 52.97,-16.47 3.75,1.96 7.5,4.46 11.1,7.6 11.62,10.13 21.99,86.71 29.23,160.36 7.34,73.15 11.78,143.48 11.78,143.48l15.32 -9.13 0 -0.3c1.38,-9.4 43.4,-311.85 56.12,-379.75 3.45,-18.09 7.87,-31.44 13.09,-41.14 14.46,-27.16 34.64,-27.13 55.96,-22.42l1.64 0.36c29.62,6.98 26.43,177.77 24.29,228.03 -0.8,19.77 -5.07,55.23 -9.36,91.38 -6.8,55.83 -13.68,113.04 -8.78,114.39 8.1,2.06 21.38,1.04 21.38,1.04l-0.02 -0.3c2.35,-11.37 74.15,-375.5 91.6,-423.1 1.18,-3.38 2.58,-6.56 4.04,-9.57 19.57,-40.74 58.81,-53.85 91.33,-39.91 5.32,2.26 9.35,7.17 12.3,14.29 17.26,39.24 2.96,143.18 -3.14,191.68 -5.49,43.65 -38.03,188 -52.86,253.48l-0.06 0.09c-4.67,20.07 -7.55,32.61 -7.55,32.61l32.66 12.14c0,0 77.95,-330.51 135.9,-398.26 4.46,-5.09 8.75,-8.71 12.8,-10.62 22.73,-10.37 40.59,-3.49 53.26,11.54 20.01,23.68 27.21,67.91 20.97,97.42 -10.36,48.17 -115.16,338.77 -110.59,352.04 4.74,13.22 35.84,20.93 35.84,20.93 0,0 20.62,-47.93 59.13,-94.08 43.28,-51.66 109.04,-101.02 193.9,-77.77 0,0 18.01,8.68 4.26,27.23z"/>
  <path class="fil3" d="M7430.02 4565.76c-52.39,-35.64 -119.47,-40.28 -182.86,-39.71 -63.37,0.57 -128.63,4.9 -188.3,-16.44 -60.09,-21.51 -91.58,-64.87 -108.98,-123.54 -11.69,-39.4 -0.96,-116.3 -32.71,-146.01l-0.54 -0.43c0.71,76.13 3.67,162.35 5.85,208.82 3.07,63.41 21.31,271.48 31.7,388.85 0.28,2.1 0.42,4.16 0.57,6.23l0.33 2.87c0.54,5.93 0.98,11.56 1.53,16.92 0.28,2.68 0.48,5.2 0.7,7.72 0.42,5.05 0.83,9.79 1.29,14.12 -15.85,179.19 -25.53,430.87 -25.53,430.87 74.22,58.48 266.85,87 425.96,12.28 14.45,-252.57 35.97,-398.16 35.97,-398.16 0,0 39.62,-105.55 55.42,-134.6 1.9,-3.36 5.47,-9.02 10.51,-16.27l1.96 -2.91c6.21,-9.08 14.38,-20.48 23.64,-33.23 1.57,-2.1 3.14,-4.18 4.76,-6.39 4.25,-5.89 8.77,-12 13.45,-18.26 1.85,-2.65 3.87,-5.39 5.85,-7.98l0.05 -0.11c1.96,-2.62 3.87,-5.13 5.83,-7.72l0.37 -0.5c-2.05,-8.27 -4.42,-16.43 -7.11,-24.44 -15.15,-45.06 -40.75,-85.45 -79.73,-111.96z"/>
  <path class="fil3" d="M7503.25 4001.78c-57.96,67.77 -135.9,398.26 -135.9,398.26 0,0 41.81,-18.42 58.91,-103.69 17.19,-85.21 72.74,-216.21 77.39,-252.47 2.03,-15.78 2.17,-32.04 -0.4,-42.1z"/>
  <path class="fil3" d="M7294.67 3935.68c-1.46,2.99 -2.83,6.17 -4.04,9.55 -17.46,47.6 -89.25,411.72 -91.58,423.1l0 0.3c0,0 50.1,-58.46 53.34,-88.01 3.16,-29.6 60.39,-293.61 61.52,-318.77 0.54,-12.97 -9.55,-21.22 -19.25,-26.16z"/>
  <path class="fil3" d="M7113.93 3955.84c-5.22,9.7 -9.65,23.06 -13.1,41.14 -12.72,67.91 -54.74,370.35 -56.13,379.75l0 0.3 45.59 -22.13c0,0 23.59,-140.81 33.65,-203.74 10.13,-63.05 20.61,-142.25 4.71,-170.08 -5.43,-9.4 -10.28,-18.83 -14.73,-25.23z"/>
  <path class="fil2" d="M7186.45 4253.19c-8.22,-6.23 -17.78,-19.48 -15.28,-46.83 4.25,-46.13 16.43,-191.55 11.81,-204.72 -4.71,-13.2 -32.99,-51.65 -19.37,-62.86 1.86,-1.52 4.06,-3.45 6.28,-5.37l1.65 0.36c29.62,6.98 26.44,177.77 24.28,228.03 -0.8,19.77 -5.07,55.23 -9.36,91.38z"/>
  <path class="fil2" d="M7017.62 4242.67c-5.01,-19.15 -10.16,-37.39 -15.07,-51.41 -18,-51.27 -49.55,-80.19 -32.79,-106.52 2.3,-3.58 4.75,-6.96 7.52,-10.03 3.75,1.96 7.51,4.46 11.1,7.61 11.63,10.14 22,86.71 29.23,160.35z"/>
  <path class="fil2" d="M7342.3 4355.2l-0.05 0.09c-3.62,2.83 -7.05,3.16 -9.59,-1.33 -9.73,-17.02 3.18,-109.82 15.17,-163.18 11.87,-53.39 29.34,-172.85 31.71,-200.57 2.25,-27.74 -4.69,-81.93 3.56,-84.92 2.9,-1.02 8.8,1.22 15.2,4.74 17.24,39.24 2.94,143.18 -3.16,191.68 -5.47,43.67 -38.03,188 -52.86,253.48z"/>
  <path class="fil2" d="M7479.68 4452.15c0,0 -50.89,-9.4 -14.24,-111.39 36.64,-102.02 74.01,-191.33 82.79,-232.42 8.69,-41.15 1.14,-102.59 20.51,-105.64l0.58 -0.02c19.99,23.68 27.19,67.91 20.94,97.44 -10.34,48.17 -115.13,338.77 -110.59,352.02z"/>
  <path class="fil2" d="M7772.82 4328.46c-15.78,-2.34 -37.16,-3.38 -67.67,2.15 -82.7,14.81 -189.61,142.47 -189.61,142.47 0,0 20.62,-47.93 59.13,-94.08 43.28,-51.66 109.04,-101.02 193.9,-77.77 0,0 18.01,8.68 4.26,27.23z"/>
  <path class="fil6" d="M5534.41 6365.96l-2138.49 0c-177.56,0 -325.57,-135.9 -340.72,-312.81l-283.2 -3308.12 3386.32 0 -283.18 3308.12c-15.17,176.91 -163.18,312.81 -340.71,312.81z"/>
  <path class="fil7" d="M5844.39 2745.04l-309.98 3620.92c177.54,0 325.54,-135.9 340.71,-312.81l283.18 -3308.12 -313.91 0z"/>
  <path class="fil27" d="M2771.99 2745.04l283.2 3308.12c15.15,176.91 163.16,312.81 340.72,312.81l-309.99 -3620.92 -313.93 0z"/>
  <polygon class="fil7" points="2771.99,2745.04 5898.7,3208.89 6003.64,2573.57 "/>
  <path class="fil7" d="M3283.42 2777.83c-0.46,5.17 -0.84,10.35 -1.48,15.52 -8,62.9 -22.34,192.19 -28.85,285.89 -2.55,36.58 -3.85,67.7 -2.99,87.6 0.24,9.19 0.86,15.49 2.19,18.93 1.24,3.2 2.81,6.04 4.55,8.75l1.4 2.08c1.75,2.43 3.62,4.71 5.72,6.65l1.88 1.5c1.56,1.25 3.14,2.43 4.82,3.43l3.52 1.97 3.94 1.56c2.47,0.87 5,1.53 7.61,1.94l2.57 0.34c11.25,1.06 23.47,-2.04 34.9,-10.55 7.82,-5.77 17.14,-35.42 26.18,-74.84 22.84,-98.36 45.3,-257.28 45.3,-257.28l16.14 11.39c0,0 2.59,43.11 6.39,102.67 6.9,108.73 17.58,271.83 22.97,321.79 2.34,21.31 6.29,36.97 11.8,48.38 1.59,3.47 3.32,6.48 5.14,9.21l1.94 2.59 3.84 4.54 2.57 2.41 3.69 2.84 3.05 1.98 3.48 1.6c5.26,2.27 10.84,3.41 17.2,3.71 2.3,0.09 4.64,0.05 7,-0.08 4.27,-0.22 8.58,-0.64 12.98,-1.33 5.75,-0.85 10.86,-7.25 15.53,-17.58 21.42,-49.12 29.25,-186.07 30.75,-232.01 1.9,-55.06 -11.18,-222.42 -2.41,-228.85 3.91,-0.69 8.71,-0.67 13.03,-0.44 5.91,0.33 10.81,1.08 10.81,1.08 0,0 4.56,39.16 11.43,95.23 15.54,127.44 42.73,342.11 53.42,380.26 1.86,6.74 4.32,13.08 7.21,18.96 2.67,5.56 5.76,10.55 9.1,15.15l2.43 2.89c2.8,3.52 5.74,6.81 8.88,9.71l2.15 1.79c3.58,3.06 7.28,5.73 11.18,8.03l1.1 0.6c4.4,2.5 8.94,4.5 13.66,6 14.66,4.69 30.34,4.86 45.3,-0.24 7.23,-2.5 12.78,-9.38 17.11,-19.42 19.79,-45.43 13.33,-155.38 10.6,-207.44 -2.9,-61.59 -39.85,-305.33 -42.12,-320.58l-0.13 -0.71 30.88 -8.69 6.28 -1.77c0,0 1.81,11.31 4.99,30.47 13.33,78.99 51.38,291.41 93.1,387.54 10.32,23.83 20.8,40.63 31.22,46.3 2.98,1.67 5.9,3.01 8.74,4.09l3.73 1.1 4.63 1.33 4.82 0.56 3.1 0.33c1.86,0.03 3.67,-0.16 5.47,-0.35l2.01 -0.16c2.03,-0.33 3.98,-0.86 5.9,-1.46l1.15 -0.33c2.11,-0.73 4.16,-1.64 6.15,-2.68l0.49 -0.26c2.12,-1.13 4.15,-2.44 6.25,-3.98 19.33,-14.34 32.32,-43.32 37.35,-71.84 2.41,-14.18 3.04,-28.28 1.37,-40.4 -6.57,-49.05 -81.63,-324.27 -91.16,-386.45 -0.93,-6.34 -1.19,-10.52 -0.62,-11.8 6.31,-14.31 41.39,-20.01 41.39,-20.01 0,0 18.88,55.67 58.32,110.21 43.22,60.38 111.41,119.57 206.41,101.26 0,0 25.53,-9.92 0.99,-37.84 -10.58,-11.98 -28.95,-35.57 -46.76,-61.82 -5.72,-8.41 -11.37,-17.13 -16.69,-25.82l-1.8 -3.01c-1.94,-3.18 -3.82,-6.35 -5.64,-9.53l-2.34 -4.17c-1.54,-2.74 -3.01,-5.44 -4.44,-8.14l-2.36 -4.57c-1.28,-2.5 -2.49,-4.97 -3.62,-7.4l-2.1 -4.57c-1.06,-2.37 -1.99,-4.65 -2.89,-6.94l-1.64 -4.2c-0.88,-2.37 -1.57,-4.64 -2.23,-6.86l-0.98 -3.27c-0.82,-3.22 -1.42,-6.27 -1.72,-9.06 -3.18,-30.02 -19.94,-62.57 -34.07,-86.25l-789.56 0c-0.87,10.93 -1.6,21.88 -2.57,32.79z"/>
  <path class="fil6" d="M6161.09 2056.77l-3391.86 0c-114.77,0 -207.8,93.03 -207.8,207.82l0 272.65c0,114.75 93.03,207.8 207.8,207.8l3391.86 0c114.75,0 207.78,-93.05 207.78,-207.8l0 -272.65c0,-114.79 -93.03,-207.82 -207.78,-207.82z"/>
  <path class="fil27" d="M6367.86 2244.26c-10.23,-105.22 -98.87,-187.49 -206.77,-187.49l-3391.86 0c-114.77,0 -207.8,93.03 -207.8,207.82l0 272.65c0,114.75 93.03,207.8 207.8,207.8l2.76 0 0 -500.77 3595.87 0z"/>
  <path class="fil7" d="M3856.67 2056.77l-555.4 0c9.17,69.31 18.24,136.89 14.17,207.11 -3.54,60.75 -7.1,121.49 -10.72,182.24 -5.95,99.57 -10.76,199.43 -18.74,298.92l789.56 0c-5.4,-9.08 -10.46,-16.94 -14.16,-22.71 0,0 -151.6,-233.64 -166.55,-267.1 -16.98,-37.94 -27.21,-79.24 -39.56,-118.81 -14.86,-47.51 -11.67,-99.58 -10.07,-148.67 0.4,-12.43 8.22,-110.75 11.46,-130.98z"/>
  <polygon class="fil4" points="4466.78,4508.68 4466.71,4508.68 "/>
  <path class="fil4" d="M4160.54 4076.07c-63.54,-120.05 -40.59,-269.46 50.19,-371.45 45.72,-51.36 101.69,-85.58 167.58,-103.91 -0.64,-3.51 -1.25,-7.03 -1.92,-10.54 -0.42,-2.17 -0.99,-4.46 -1.5,-6.7 -6.76,1.12 -13.56,2.06 -20.22,3.62 -236.21,54.63 -397.68,283.2 -369.48,523.65 1.94,16.47 -3.19,23.15 -17.51,31.18 -41.57,23.28 -85.19,45.08 -121.36,75.41 -126.33,105.93 -178.07,245.04 -169.24,407.89 2.18,39.85 11.21,78.37 24.49,115.74 4.85,-1.7 9.76,-3.22 14.67,-4.8 -39.89,-146.64 31.3,-315.54 164.84,-386.77 146.06,-77.89 320.36,-44.46 427.9,82.09 4.51,5.3 8.87,10.57 13.31,15.88l118.24 -181.56c-4.17,-0.79 -8.38,-1.69 -12.29,-2.05 -124.63,-12.05 -211.3,-81.06 -267.72,-187.7z"/>
  <path class="fil4" d="M4995.95 4159.82c-15.8,-8.8 -39.06,-12.25 -46.71,-25.3 -7.47,-12.76 0.7,-34.64 1.9,-52.5 0.26,-3.64 0.13,-7.26 0.16,-10.9 1.35,-147.69 -52.22,-272.38 -160.93,-371.59 -65.25,-59.58 -141.03,-99.51 -227.48,-115.34 -3.12,5.61 -6.13,11.27 -9.32,16.84 37.3,16.98 77.71,29.41 110.63,52.56 156.38,110.05 188.37,325.4 76.36,473.33 -55.36,73.13 -126.33,120.7 -217.9,134.98 -14.33,2.22 -23.55,3.76 -29.69,6.36l115.32 177.05c24.2,-24.19 46.76,-48.17 72.62,-67.63 167.43,-126.02 406.23,-71.39 503.56,113.99 38.91,74.12 49.03,151.61 31.9,232.14 5.37,1.64 10.7,3.41 16.08,5.02 15.25,-49.61 22.57,-100.5 20.3,-152.94 -8.05,-186.56 -93.92,-325.14 -256.8,-416.07z"/>
  <path class="fil4" d="M5119.76 4897.37c-106.83,99.52 -248.33,124.37 -383.5,65.4 -122.97,-53.67 -209.29,-198.87 -193.99,-332.01 4.61,-40.3 15.99,-79.95 25.85,-122.08l-209.65 0c32.84,78.57 39.94,158.21 16.1,241.16 -38.74,134.87 -163.01,234.78 -303.6,241.45 -99.78,4.72 -185.98,-25.56 -258.02,-92.37 -2.89,2.74 -5.6,5.6 -8.49,8.38 123.95,149.39 412.35,246.9 658.71,57.28 252.14,197.38 547.74,88.15 665.5,-56.99 -2.93,-3.43 -5.92,-6.82 -8.89,-10.22z"/>
  <path class="fil4" d="M4342.13 4711.44c-130.49,-56.8 -209.71,-186.21 -198.6,-325.78 -17.21,-1.33 -34.36,-2.85 -51.51,-4.9 -18.48,-2.23 -36.97,-4.56 -55.5,-6.21l-4.04 -0.27c-10.5,167.17 53.28,300.24 190.95,398.58 24.98,17.84 53.7,30.44 85.58,48.15 14.94,-37.35 28.21,-70.46 41.5,-103.64 -6.1,-4.35 -7.14,-5.39 -8.38,-5.94z"/>
  <path class="fil4" d="M4893.75 4341.55c-36.64,5.28 -71.41,10.3 -103.05,14.86 -3.71,46.36 -2.39,87.57 -11.01,126.56 -22.75,102.94 -85.12,176.12 -179,221.89 10.1,18.95 20.07,37.98 30.82,56.61 7.34,12.7 14.92,25.26 22,38.1l1.82 3.2c130.13,-68.12 211.77,-172.95 238.95,-319.45 8.47,-45.63 9.26,-91.56 -0.52,-141.78z"/>
  <path class="fil4" d="M4263.11 4158.11c137.41,-93.58 270.3,-92.8 405.86,1.09 22.8,-28.81 44.97,-56.8 67.03,-84.68 -153.94,-130.91 -391.98,-127.46 -540.06,-0.94 22.4,28.19 44.91,56.51 67.17,84.54z"/>
  <path class="fil1" d="M4064.9 2704.78c-4.38,-41.5 -34.82,-88.13 -48.24,-108.95 0,0 -151.59,-233.63 -166.55,-267.08 -14.96,-33.45 -49.87,-153.52 -49.87,-153.52 0,0 1.28,-49.52 3.33,-127.04 -22.17,-21.43 -205.61,-10.95 -225.69,-10.97 -154.3,-0.1 -254.43,-19.44 -302.03,11.21 0,0 -32.54,569.66 -38.63,618.43 -7.98,62.9 -22.31,192.19 -28.91,285.76l0.06 0.12c-2.54,36.59 -3.85,67.7 -3.12,87.2l0.09 0.25 0.06 0.13c0.22,9.2 0.86,15.52 2.17,18.95 11.27,28.96 43.55,38.03 70.93,17.66 7.8,-5.77 17.15,-35.42 26.19,-74.84 22.84,-98.35 45.29,-257.28 45.29,-257.28l16.14 11.39c0,0 2.59,43.13 6.34,102.53l0.05 0.13c6.9,108.73 17.58,271.83 22.97,321.79 2.34,21.3 6.28,36.96 11.78,48.38 13.87,30.22 36.64,31.28 60.89,27.48 5.75,-0.85 10.88,-7.27 15.46,-17.4l0.08 -0.2c21.41,-49.09 29.27,-186.07 30.76,-231.99 1.9,-55.06 -11.17,-222.41 -2.76,-228.57l0.33 -0.28c9.28,-1.62 23.85,0.62 23.85,0.62 0,0 4.54,39.18 11.41,95.25 15.54,127.44 42.74,342.11 53.44,380.27 1.86,6.71 4.31,13.07 7.16,18.82l0.06 0.13c19.44,40.68 58.81,55.83 93.75,43.95 7.25,-2.5 12.8,-9.38 17.11,-19.42 19.79,-45.43 13.33,-155.39 10.62,-207.44 -2.91,-61.59 -39.88,-305.32 -42.14,-320.58l-0.12 -0.71 37.17 -10.49c0,0 1.81,11.33 4.99,30.49 13.33,78.97 51.36,291.43 93.1,387.52 10.32,23.87 20.8,40.65 31.22,46.32 48.51,26.98 81.01,-24.16 89.8,-73.67 2.41,-14.17 3.03,-28.24 1.35,-40.39 -6.56,-49.04 -81.61,-324.26 -91.09,-386.32l-0.06 -0.14c-0.94,-6.32 -1.19,-10.49 -0.62,-11.79 6.32,-14.31 41.37,-20.03 41.37,-20.03 0,0 18.88,55.69 58.32,110.23 43.24,60.38 111.41,119.57 206.41,101.26 0,0 25.53,-9.92 0.99,-37.81 -24.46,-27.8 -90.93,-117.81 -95.2,-159.38z"/>
  <path class="fil2" d="M3398.39 2053.61c24.38,-14.08 53.61,-16.77 83.13,-18.62 -100.45,-4.09 -168.85,-10.28 -205.68,13.44 0,0 -32.54,569.66 -38.63,618.43 -7.98,62.9 -22.31,192.19 -28.91,285.76l0.06 0.12c-2.54,36.59 -3.85,67.7 -3.12,87.2l0.09 0.25 0.06 0.13c0.22,9.2 0.86,15.52 2.17,18.95 7.34,18.9 23.66,29.1 41.72,28.43 -5.94,-4.38 -11.43,-9.4 -16.31,-14.67 -21.56,-23.24 -27.42,-46.1 -13.77,-76.7 8.95,-20.07 22.64,-38 29.38,-58.9 13.24,-41.2 -2.52,-85.25 -10.79,-127.72 -16.16,-83.08 -1.72,-171.41 38.52,-245.72 9.97,-18.42 24.39,-34.12 34.56,-52.07 10.41,-18.37 13.28,-43 17.75,-64.03 10.37,-48.86 17.74,-98.83 14.15,-148.88 -5.79,-80.47 -30.42,-195.73 55.61,-245.41z"/>
  <path class="fil2" d="M3455.17 3257.86c-10.68,-9.92 -19.1,-22.69 -24.48,-36.26 -10.24,-25.74 -11.62,-54.03 -12.86,-81.71 -4.54,-101.08 -9.07,-202.13 -13.62,-303.21 -1.39,-31.1 -2.6,-63.38 9.53,-92.03 9.33,-22.04 25.93,-40.33 35.61,-62.22 28.45,-64.22 -8.68,-136.99 -44.71,-197.29 -22.09,88.37 -34.44,178.41 -41.23,269.15l2.7 1.92c0,0 2.59,43.13 6.34,102.53l0.05 0.13c6.9,108.73 17.58,271.83 22.97,321.79 2.34,21.3 6.28,36.96 11.78,48.38 11.35,24.74 28.72,29.81 47.92,28.81z"/>
  <path class="fil2" d="M3652.72 3141.33c14.48,-43.89 -22.62,-120.96 -39.51,-162.35 -24.58,-60.29 -45.37,-124.36 -40.13,-190.34 3.93,-49.28 22.11,-96.26 30.77,-144.94 8.63,-48.68 6.04,-103.45 -26.01,-141.08 -16.32,75.86 -42.54,147.33 -49.72,225.33 -1.52,16.54 -2.43,33.12 -3.07,49.7 5.91,0.33 10.81,1.06 10.81,1.06 0,0 4.54,39.18 11.41,95.25 15.54,127.44 42.74,342.11 53.44,380.27 1.86,6.71 4.31,13.07 7.16,18.82l0.06 0.13c11.14,23.28 28.85,37.92 48.46,44.18 -1.7,-2.8 -3.69,-5.77 -6.14,-9.06 -27.81,-37.28 -45,-83.37 -19.98,-127.73 7.43,-13.17 17.71,-24.88 22.44,-39.24z"/>
  <path class="fil2" d="M3911.93 3216.03c-12.4,-2.3 -24.44,-7.93 -33.63,-16.3 -23.41,-21.43 -32.84,-53.72 -41.08,-84.38 -33.6,-124.92 -64.53,-251.67 -69.93,-380.94 -1.77,-42.78 -0.94,-86.77 -16.05,-126.84 -7.23,-19.17 -19.6,-34.82 -28.35,-53 -6.21,-12.89 -5.95,-25.17 -8.79,-38.99 -23.56,38.56 -44.42,91.51 -32.12,137.01 5.72,21.18 18.32,39.84 26.09,60.34 5.81,15.34 8.6,31.2 9.95,47.35l6.3 -1.79c0,0 1.81,11.33 4.99,30.49 13.33,78.97 51.36,291.43 93.1,387.52 10.32,23.87 20.8,40.65 31.22,46.32 23.48,13.06 43.18,7.72 58.3,-6.79z"/>
  <path class="fil3" d="M4064.9 2704.78c-4.38,-41.5 -34.82,-88.13 -48.24,-108.95 0,0 -151.59,-233.63 -166.55,-267.08 -14.96,-33.45 -49.87,-153.52 -49.87,-153.52 0,0 1.28,-49.52 3.33,-127.04 -13.93,-13.47 -91.5,-14.33 -152.24,-13.12 -37.94,74.21 -47.91,162.79 -3.12,236.97 33.78,55.91 92.47,97.34 110.97,159.98 13.01,44.1 5.77,97.26 37.44,130.6 36.01,37.92 102.05,27.57 142.6,60.62 38.57,31.43 40.51,89.78 68.66,130.78 23.05,33.62 65.07,50.54 105.49,48.31 -23.5,-34.62 -46.05,-73.91 -48.47,-97.55z"/>
  <path class="fil3" d="M3944.78 3108.74c-6.56,-49.03 -81.61,-324.25 -91.09,-386.31 -5.08,19.46 -19.03,84.68 0.39,147.62 23.34,75.39 59.71,214.52 67.62,234.87 4.57,11.79 13.91,27.63 21.73,44.22 2.41,-14.17 3.03,-28.24 1.35,-40.4z"/>
  <path class="fil3" d="M3687.28 2769.68c0.68,12.36 11.44,177.27 20.87,245.43 9.82,70.77 4.62,178.86 4.62,214.17 0,18.4 3.1,45.97 6.03,68.42 19.79,-45.43 13.33,-155.39 10.62,-207.44 -2.91,-61.59 -39.88,-305.32 -42.14,-320.58z"/>
  <path class="fil3" d="M3511.69 2778.36c-3.73,2.2 -33.27,21.75 -33.85,53.17 -0.73,33.76 11.76,146.7 11.76,146.7l1.28 134.95c0,0 1.79,70.08 -3.34,97.63 -1.86,9.72 -3.04,19.61 -3.85,28.12 21.41,-49.09 29.27,-186.07 30.76,-231.99 1.9,-55.06 -11.17,-222.41 -2.76,-228.57z"/>
  <path class="fil3" d="M3311.54 2762.64c-1.71,35.97 -0.71,139.66 -0.71,139.66 0,0 -18.58,58.36 -12.78,83.51 1.32,5.72 3.75,11.16 6.63,16.29 22.84,-98.35 45.29,-257.28 45.29,-257.28 0,0 -36.58,-18.2 -38.43,17.82z"/>
  <polygon class="fil28" points="3700.35,2630.93 3700.99,2630.59 3702.27,2629.86 "/>
  <path class="fil7" d="M4928.99 2057.02c50.44,13.86 74.86,71.5 81.13,123.45 6.29,51.93 2.14,107 25.43,153.82 37.21,74.71 128.45,101.17 209.15,122.5 80.71,21.33 171.67,54.85 199.62,133.49l1.9 -1.08c16.84,54.37 35.71,107.15 62.07,155.83l20.89 0c-28.93,-50.97 -48.84,-107.14 -66.67,-165.07 106.67,-60.66 214.79,-119.59 310.03,-196.08 5.11,-4.11 9.97,-8.53 15,-12.7 69.55,108.53 110.36,239.68 114.76,370l0.04 3.85 18.28 0 -0.04 -4.48c-4.55,-134.37 -46.81,-269.69 -118.9,-381.34 3.65,-3.18 7.45,-6.13 11.07,-9.36 -3.29,-12.54 -7.05,-25.05 -11.05,-37.48 -1.24,-3.89 -2.59,-7.76 -3.91,-11.65 -2.95,-8.72 -6.08,-17.42 -9.38,-26.07 -1.59,-4.22 -3.19,-8.44 -4.88,-12.63 -3.87,-9.61 -7.96,-19.12 -12.23,-28.58 -1.19,-2.68 -2.3,-5.4 -3.52,-8.06 -5.24,-11.29 -10.85,-22.38 -16.65,-33.38 -2.48,-4.74 -5.13,-9.38 -7.7,-14.06 -3.76,-6.79 -7.61,-13.51 -11.58,-20.16 -2.98,-4.98 -5.97,-9.93 -9.06,-14.84 -4.27,-6.79 -8.69,-13.44 -13.16,-20.05 -2.85,-4.22 -5.59,-8.49 -8.51,-12.63 -13.18,-18.64 -27.42,-36.37 -42.25,-53.48l-714.99 0 -14.88 0.26z"/>
  <path class="fil1" d="M4896.07 2056.77c49.41,13.55 73.31,70.02 79.46,120.87 6.16,50.87 2.08,104.78 24.9,150.65 36.44,73.16 125.8,99.07 204.82,119.96 79.03,20.87 168.09,53.72 195.48,130.71 125.1,-71.59 253.55,-139.11 360.76,-235.44 -28.62,-109.35 -84.73,-215.48 -160.93,-299l-704.5 12.25z"/>
  <path class="fil3" d="M5652.2 2108.9c1.29,50.74 20.58,101.28 30.42,151.97 12.15,62.68 1.83,136.04 -55.76,163.59 -53.28,-65.94 -106.57,-131.89 -159.85,-197.81 45.53,67.08 93.5,135.02 139.04,202.1 -32.59,10.33 -66.55,29.66 -90.82,53.73 -41.89,-55.2 -83.75,-110.39 -125.62,-165.59 32.55,59.81 60.35,124.43 92.94,184.23 -8.92,6.61 -20.24,10.9 -29.13,17.51 -33.58,-44.1 -87.69,-67.15 -140.73,-83.22 -65.21,-19.76 -124.54,-41.77 -184.04,-75.03 -49.45,-27.64 -71.23,-95.18 -78.35,-149.34 -6.9,-52.37 3.76,-106.23 -17,-156.67l-137.23 2.39c49.41,13.56 73.31,70.02 79.46,120.87 6.16,50.87 2.08,104.78 24.9,150.65 36.44,73.16 125.8,99.07 204.82,119.96 79.03,20.87 168.09,53.72 195.48,130.71 125.1,-71.59 253.55,-139.11 360.76,-235.44 -21.71,-82.89 -59.24,-163.88 -109.29,-234.62z"/>
  <path class="fil2" d="M5346.38 2471.66c-50.16,-29.8 -109.24,-39.55 -164.97,-56.78 -55.71,-17.24 -112.82,-45.96 -139.18,-97.99 -24.08,-47.6 -17.48,-104.1 -22.18,-157.24 -3.35,-38.01 -17.36,-79.61 -44.14,-104.25l-79.84 1.38c49.41,13.56 73.31,70.02 79.46,120.87 6.16,50.87 2.08,104.78 24.9,150.65 36.44,73.16 125.8,99.07 204.82,119.96 79.03,20.87 168.09,53.72 195.48,130.71 10.02,-5.74 20.1,-11.43 30.14,-17.13 -19.61,-36.9 -48.55,-68.78 -84.49,-90.18z"/>
  <path class="fil2" d="M5706.69 2328.46c5.49,16.01 10.64,32.13 15.44,48.38 13.39,-10.76 26.55,-21.8 39.37,-33.32 -28.62,-109.35 -84.73,-215.48 -160.93,-299l-34.96 0.62c59.1,87.77 106.75,183.24 141.08,283.32z"/>
  <path class="fil2" d="M5437.94 2473.2c-68.19,-139.75 -144.68,-275.48 -228.9,-406.23 55.21,149.85 133.87,277.91 228.9,406.23z"/>
  <path class="fil2" d="M5576.85 2408.37c-108.29,-110.9 -205.06,-233.05 -288.22,-363.85l288.22 363.85z"/>
  <path class="fil2" d="M5441.34 2149.41c56.25,77.58 112.51,155.16 168.76,232.75 -27.92,-92.09 -89.21,-178.64 -168.76,-232.75z"/>
  <path class="fil2" d="M5734.47 2360.46c70.04,107.69 110.34,236.26 114.74,366.26 0.18,5.3 0.28,10.63 0.28,15.98 0.07,47.31 -8.05,95.11 -37.25,126.42 -22.61,24.46 -56.39,36.43 -90.12,36.43 -4.88,0 -9.73,-0.26 -14.54,-0.75 -38.36,-3.88 -75.08,-21.85 -108.12,-45.02 -54.26,-38.05 -91.57,-84.55 -120.14,-137.23 -28.56,-52.65 -48.25,-111.48 -66.81,-173.52l-17.14 5.13c18.66,62.37 38.65,122.39 68.21,176.94 29.54,54.52 68.82,103.58 125.6,143.35 34.55,24.19 73.84,43.78 116.58,48.18 5.42,0.55 10.88,0.82 16.36,0.82 37.81,0 76.46,-13.29 103.25,-42.14 34.16,-37.1 41.96,-89.59 42.01,-138.6 0,-5.57 -0.09,-11.1 -0.27,-16.58 -4.53,-133.28 -45.76,-264.91 -117.65,-375.41l-14.99 9.74z"/>
  <path class="fil5" d="M2691.89 5212.29c-12.11,7.52 -24.14,15.15 -36.08,22.93 -425.95,277.28 -823.74,850.02 -572.49,1366.57 242.69,498.96 816.39,684.1 1332.86,724.2 722.17,56.01 2017.86,-10.53 2209.28,-925.31 68.43,-327.05 -85.54,-666.03 -305.67,-915.29 -645.89,-731.41 -1829.67,-768.79 -2627.9,-273.09z"/>
  <path class="fil8" d="M3593.85 5635.75c-5.86,-90.11 -11.63,-181.6 7.45,-269.88 19.1,-88.26 66.65,-174.42 144.84,-219.6 -65.33,160.02 -113.33,321.07 -152.29,489.47z"/>
  <path class="fil8" d="M4235.38 5464.18c-71.13,-140.79 -175.49,-264.67 -302.14,-358.71 85.79,18.63 172.71,50.18 227.28,118.97 54.56,68.8 76.27,151.93 74.86,239.74z"/>
  <path class="fil8" d="M4305.88 5094.23c-87.1,-53.53 -177.39,-101.84 -270.24,-144.62 109.02,-3.58 209.75,53.88 270.24,144.62z"/>
  <path class="fil4" d="M3447.4 4956.85c-108.74,57.87 -208.91,131.77 -296.26,218.63 89.39,-53.49 188.97,-93.63 286.94,-129.05 -39.07,32.71 -73.49,64.63 -112.59,97.37 98.06,-27.72 196.11,-49.96 294.16,-77.65 -76.72,123.28 -122.69,269.2 -133.32,414.02 64.6,-137.64 149.61,-265.71 251.38,-378.66 132.63,97.26 259.16,211.78 337.92,356.16 -62.91,-140.9 -137.88,-276.42 -223.8,-404.62 108.39,-1.81 229.23,20.48 325.43,70.53 -86.17,-103.2 -207.54,-176.43 -339,-204.59 -131.44,-28.15 -272.18,-25.3 -390.85,37.85z"/>
  <path class="fil8" d="M2457.74 5604.64c150.69,-190 361.14,-331.9 593.77,-400.38 -68.23,68.78 -120.97,152.84 -153.26,244.2 155.37,-122.61 340.9,-206.69 535.54,-242.64 -326.24,190.54 -614.05,446.54 -841.33,748.35 38.85,-113.89 97.81,-220.87 173.35,-314.55 -278.79,248.48 -444.65,619.03 -444.25,992.47 -0.03,-31.77 -47.32,-92.72 -59.52,-125.2 -16.98,-45.19 -29.62,-91.69 -38.8,-139.08 -16.94,-87.38 -18,-159.48 -1.1,-247.7 35.9,-187.3 117.06,-365.97 235.6,-515.47z"/>
  <path class="fil4" d="M4502.66 5077.67c207.27,65.6 356.91,251.14 411.36,452.89 54.41,201.71 24.36,416.91 -41.77,615.45 -70.99,213.16 -186.95,418.26 -366.13,562.52 -177.82,143.21 -406.47,217.66 -635.72,255.73 -539.38,89.54 -1205.34,2.41 -1580.2,-282.5 472.43,717.08 1809.86,618.3 2083.28,564.81 1107.64,-216.72 1160.19,-798.81 1149.45,-1064.94 -17.42,-432.93 -456.99,-1006.05 -1020.25,-1103.97z"/>
  <path class="fil5" d="M3399.44 4710.24c-56.95,-134.1 -53.91,-300.92 44.86,-410.41 47.09,-52.18 120.56,-89.06 190.62,-73.14 61.47,13.95 106.43,64.31 138.98,116.21 103.2,164.49 137.23,428.29 30.29,600.76 -133.1,214.66 -354.99,-116.22 -404.75,-233.42z"/>
  <path class="fil6" d="M3865.86 4798.12c38.76,-0.04 86,7.03 100.28,43.07 14.79,37.27 -17.8,76.15 -51.17,98.39 -95.67,63.78 -215.79,78.37 -330.77,77.73 -32.95,-0.18 -66.51,-1.59 -97.55,-12.6 -31.05,-11.02 -59.68,-33.12 -71.21,-63.98 -35.44,-95.05 97.9,-100.34 157.64,-112.61 96.25,-19.78 194.49,-29.87 292.77,-30z"/>
  <path class="fil7" d="M3914.97 4939.58c33.36,-22.24 65.96,-61.13 51.17,-98.39 -14.28,-36.04 -61.51,-43.11 -100.28,-43.07 -98.28,0.12 -196.52,10.22 -292.77,30 -37.32,7.67 -103.4,12.6 -139.07,38.43 27.55,-6.96 55.17,-13.04 82.87,-17.13 79.46,-11.76 158.54,-21.79 238.93,-24.65 46.58,-1.64 93.23,-1.42 139.8,0.66 -98.12,35.73 -197.72,67.37 -298.45,94.8 91.46,-5.58 182.44,-18.97 271.63,-39.97 -59.16,54.56 -127,97.36 -198.63,134.2 87.03,-6.75 172.83,-26.9 244.8,-74.87z"/>
  <path class="fil5" d="M6998.35 4540.83c600.92,57.81 1264.94,472.8 1521.94,1013.34 817.8,1720.1 -3509.03,2310.78 -3433.88,346.92 24.69,-644.9 634.06,-1114.25 1220.22,-1292.81 226.81,-69.09 461.77,-89.58 691.72,-67.45z"/>
  <path class="fil8" d="M5858.85 4949.44c-201.47,97.46 -368.18,265.02 -464.58,466.99 -96.44,201.96 -121.89,436.96 -70.99,654.89 21.38,-407.03 253.82,-827.31 535.57,-1121.88z"/>
  <path class="fil8" d="M6702.79 5114.49c62.85,77.69 124.96,151.91 167.5,242.34 -20.34,-120.44 -69.29,-235.95 -141.62,-334.34 -71.01,32.77 -165.46,42.18 -241.65,24.58 -76.21,-17.62 -146.16,-61.15 -195.59,-121.77 20.55,74.04 62.92,128.51 131.61,162.89 68.71,34.4 197.34,65.18 279.75,26.31z"/>
  <path class="fil8" d="M7639.77 5023.2c-148.7,-72.65 -310.32,-118.68 -474.96,-135.29 168.23,-40.35 352.55,13.02 474.96,135.29z"/>
  <path class="fil8" d="M7456.75 5397.85c-125.18,-180.24 -311.87,-316.95 -521.5,-381.91 173,120.91 348.52,261.02 521.5,381.91z"/>
  <path class="fil4" d="M8005.86 5008.65c98.31,227.01 110.69,499.91 31.28,737.19 -131.31,392.28 -467.54,685.81 -840.88,847.12 -389.34,168.25 -823.74,210.43 -1244.05,164.95 -170.73,-18.46 -339.4,-51.15 -505.72,-94.25 979.49,815.88 3631.4,194.96 2986.12,-1135.53 -94.15,-194.12 -244.61,-371.21 -426.74,-519.49z"/>
  <path class="fil4" d="M7421.58 4887.03c-124.21,-52.49 -253.24,-83.33 -386.6,-69.51 201.15,124.12 369.56,325.57 452.68,553.49 -149.28,-223.06 -371.21,-363.56 -625.02,-425.9 40.48,78.99 62.33,157.68 76.3,246.05 -46.8,-89.9 -119.98,-181.73 -208.18,-226.38 -90.31,38.25 -194.51,54.45 -284.54,15.54 -90.03,-38.91 -157.12,-144.81 -131.91,-243.06 -104.38,14.52 -208.26,34.33 -302.5,83.33 5.37,-3.73 10.75,-7.43 16.12,-11.16 165.89,-114.88 333.96,-166.72 532.81,-176.21 301.74,-14.37 608.79,80.1 860.85,253.81z"/>
  <path class="fil6" d="M6384.84 4727.58c14.72,46.09 50.5,82.79 92.26,104.24 41.74,21.45 89.05,28.83 135.59,28.87 94.6,0.07 192.28,-31.81 257.94,-102.87 32.88,-35.57 57.51,-87.79 40.11,-133.76 -13.45,-35.54 -48.18,-57.03 -82.41,-70.57 -112.69,-44.58 -521.36,-69.51 -443.48,174.09z"/>
  <path class="fil7" d="M6586.24 4784.4c-32,7.94 -65.75,8.82 -98.12,2.55 110.22,49.56 250.8,20.2 331.93,-69.36 -5.72,17.64 -11.44,35.28 -17.16,52.93 25.09,-23.04 47.04,-50.65 57.77,-82.98 10.72,-32.36 8.93,-69.93 -10.19,-98.14 -25.13,-37.12 -73.25,-50.61 -117.85,-55.13 -80.96,-8.18 -163.87,4.62 -238.76,36.39 -36.94,15.69 -52.57,23.58 -45.45,65.73 5.5,32.59 20.53,63.45 41.83,88.61 24.73,29.23 58.4,51.24 96,59.39z"/>
  <path class="fil5" d="M6360.77 4458.87c-56.74,-130.9 -63.31,-295.32 19.5,-410.12 68.67,-95.2 186.03,-140.02 299.84,-149.76 65.77,-5.62 139.25,1.97 184.63,52 41.34,45.61 48,113.74 50.23,176.49 6.3,177.45 0.82,505.39 -175.28,607.51 -168.25,97.57 -320.96,-142.38 -378.91,-276.12z"/>
  <path class="fil4" d="M6806.71 4330.46c-10.37,105.34 -19.95,217.88 -30.34,323.19 -18,-101.81 -38.13,-219.28 -68.67,-317.79 9.39,117.53 8.66,238.55 -2.59,355.9 -34.6,-50.91 -73.81,-107.19 -108.41,-158.08 6.1,56.93 12.25,116.5 18.35,173.43 -79.55,-101.99 -166.28,-203.25 -245.79,-305.24 -0.7,27.24 0.28,54.52 2.72,81.61 64.78,136.19 209.37,343.37 367.72,251.51 38.65,-22.42 69.07,-55.71 92.97,-95.91 1.3,-103.47 -7.12,-207.03 -25.95,-308.62z"/>
  <path class="fil8" d="M6744.53 4197.36c-130.17,3.33 -259.98,20.3 -386.62,50.6 135.82,16.65 260.31,2.04 386.62,-50.6z"/>
  <path class="fil4" d="M6707.01 4167.2c8.69,-24.58 21.37,-47.29 30.05,-71.86 24.77,3.89 53.22,-3.53 78,0.37 4.3,-36.77 1.42,-75.87 -20.18,-105.26 -21.6,-29.4 -54.52,-49.5 -89.67,-54.7 -41.9,-6.21 -83.86,7.94 -124.03,21.91 13.88,40 18.52,90.23 32.41,130.21 -39.14,-18.53 -81.67,-48.71 -112.16,-80.29 -69.22,55.23 -127.46,123.02 -156.47,208.78 0,0 271.15,-33.28 362.04,-49.15z"/>
  <path class="fil1" d="M5756.96 7010.53c-18.35,-65.67 -38.2,-130.61 -51.03,-197.7 -12.07,-63.11 -19.52,-127.02 -23.68,-191.13 -8.49,-131.46 -2.94,-263.41 7.28,-394.62 20.47,-262.24 60.94,-524.23 51.76,-787.93 -4.47,-128.52 -21.32,-257.28 -57.88,-380.8 -8.62,-29.02 -17.29,-61.05 -40.31,-82.34 -23.12,-21.34 -54.49,-28.01 -84.4,-33.78 -68.19,-13.13 -137.34,-21.71 -206.68,-25.69 -139.42,-8.07 -279.88,2.87 -416.51,31.7 -68.59,14.48 -136.48,33.38 -202.34,57.48 -12.36,4.55 -24.94,9.46 -34.82,18.42 -12.87,11.71 -18.22,27.75 -19.56,44.68 -2.7,34.38 2.83,70.88 6.04,105.13 6.45,68.5 16.65,136.62 30.02,204.11 10.81,79.79 22.24,159.5 33.34,239.26 20.8,149.64 41.68,299.29 62.88,448.9 37.07,261.68 89.39,553.83 -49.54,795.7 -53.86,93.73 -135.04,175.44 -238.38,212.33 -64.65,23.07 -133.8,27.02 -200.22,42.79 -66.01,15.7 -127.3,46.03 -179.81,88.97 -46.7,38.18 -87.8,91.09 -94.89,152.7 -6.12,53.13 18.06,103.07 59.62,135.56 40.8,31.97 91.47,49.21 141.55,60.33 64.85,14.42 131.78,22.71 197.79,29.46 136.23,13.94 276.52,12.57 408.92,-25.93 65.51,-19.04 125.99,-50.06 189.16,-75.2 33.21,-13.2 67.22,-24.25 102.5,-30.37 35.73,-6.18 72.17,-7.55 108.32,-9.36 138.44,-6.88 271.98,-35.58 398.24,-93.79 29.79,-13.75 60.82,-28.12 88.06,-46.55 29.18,-19.75 39.88,-47.71 43.09,-81.8 6.73,-71.07 -9.53,-142.5 -28.54,-210.53z"/>
  <path class="fil2" d="M4606.82 7079.31c127.23,-89.54 223.28,-222.57 268.22,-371.5 44.93,-148.95 38.49,-312.91 -18.04,-457.86 79.33,-15.39 155.2,-33.72 235.9,-37.8 -19.17,31.97 -56.69,60.52 -92.72,70.02 18.01,69.35 16.25,146.38 16.83,218.03 67.25,-1.83 123.09,-9.66 190.31,-11.49 -49.3,41.94 -123.43,90.78 -185.51,109.12 -43.93,101.23 -87.93,216.57 -155.69,303.68 -67.75,87.11 -150.92,157.02 -259.3,177.8z"/>
  <path class="fil2" d="M4731.29 5269.29c41.25,307.75 82.49,615.49 123.72,923.21 44.14,-8.48 100.01,-12.61 144.16,-21.12 -22.09,-4.97 -44.43,-14.35 -66.51,-19.33 -21.93,-302.9 -99.63,-596.63 -201.37,-882.77z"/>
  <path class="fil2" d="M4509.55 7126.6c-138.62,-31.66 -293.61,27.69 -375.67,143.8 109.84,-69.55 248.59,-116.3 375.67,-143.8z"/>
  <path class="fil3" d="M5689.52 6227.08c20.47,-262.24 60.94,-524.23 51.76,-787.93 -4.47,-128.52 -21.32,-257.28 -57.88,-380.8 -8.62,-29.02 -485.73,-94.39 -580.14,157.54 -29.7,79.26 -17.44,169.75 0.33,251.56 38.96,179.64 112.09,347.15 187.47,513.94 37.59,83.21 75.46,166.32 108.69,251.38 49.03,125.39 165.33,392.59 44.11,509.57 -54.65,52.72 -133.65,70.23 -208.85,80.81 -75.21,10.57 -153.59,17.23 -219.56,54.82 -117.76,67.14 -163.43,211.28 -248.04,317.14 -182.45,228.23 -429.09,193.57 -672.69,104.45 -8.73,-3.19 -16.67,-5.93 -24.28,-8.52 -11.41,21.02 -19.45,43.65 -22.21,67.67 -6.12,53.13 18.06,103.07 59.62,135.56 40.8,31.97 91.47,49.21 141.55,60.33 64.85,14.42 131.78,22.71 197.79,29.46 136.23,13.94 276.52,12.57 408.92,-25.93 65.51,-19.04 125.99,-50.06 189.16,-75.2 33.21,-13.2 67.22,-24.25 102.5,-30.37 35.73,-6.18 72.17,-7.58 108.31,-9.36 138.45,-6.88 272,-35.58 398.25,-93.79 29.79,-13.75 60.82,-28.12 88.06,-46.55 29.18,-19.75 39.88,-47.71 43.09,-81.8 6.71,-71.08 -9.53,-142.5 -28.54,-210.53 -18.35,-65.67 -38.2,-130.61 -51.03,-197.7 -12.07,-63.11 -19.52,-127.02 -23.68,-191.14 -8.49,-131.46 -2.94,-263.4 7.28,-394.6z"/>
  <path class="fil4" d="M5654.34 7349.4c29.79,-13.75 60.82,-28.12 88.06,-46.55 29.18,-19.75 39.88,-47.71 43.09,-81.8 4.47,-47.2 -1.3,-94.55 -11.18,-140.96 -0.46,2.07 -0.92,4.04 -1.23,5.54 -1.48,4.91 -3.43,11.56 -3.36,11.37 -1.4,3.84 -3.12,7.56 -4.78,11.28 1.08,-3.83 -10.32,14.87 -13.29,19.33l-2.1 3.24 -1.54 1.37c-6.39,6.32 -12.99,12.34 -19.96,18.05 -4.66,3.81 -9.44,7.38 -14.28,10.91l-1.7 1.29 -3.3 1.58c-12.38,6.06 -24.45,12.51 -37.27,17.7 -27.7,11.21 -57.81,17.4 -93.77,23.86 -73.02,13.13 -146.16,23.22 -218.5,40.08 -71.17,16.6 -141.45,36.67 -211.36,57.92 -140.17,42.62 -278.93,92.3 -422.44,122.86 -141.34,30.14 -271.08,31.18 -414.45,0.16 -59.72,-12.93 -125.23,-30.31 -184.41,-53.36 -33.5,-13.01 -42.81,-17.1 -69.87,-35.58l-3.94 -2.72c-2.03,7.76 -3.6,15.64 -4.53,23.74 -6.12,53.13 18.06,103.07 59.62,135.56 40.8,31.97 91.47,49.21 141.55,60.33 64.85,14.42 131.78,22.71 197.79,29.46 136.23,13.94 276.52,12.57 408.92,-25.93 65.51,-19.04 125.99,-50.06 189.16,-75.2 33.21,-13.2 67.22,-24.25 102.5,-30.37 35.73,-6.18 72.17,-7.55 108.32,-9.36 138.44,-6.88 271.98,-35.58 398.24,-93.79z"/>
  <path class="fil5" d="M4447.2 7584.06c60.29,6.18 121.37,9.04 182.21,7.34 -13.81,-48.35 -27.59,-96.67 -41.37,-145.01 -59.61,4.6 -118.7,3.64 -179.17,-3.5 -2.41,45.39 -4.84,90.8 -7.25,136.19 15.21,1.79 30.44,3.43 45.59,4.98z"/>
  <path class="fil5" d="M4856.12 7558.13c65.51,-19.04 126.01,-50.06 189.16,-75.2 33.21,-13.2 67.22,-24.25 102.5,-30.37 35.73,-6.17 72.17,-7.55 108.32,-9.36 116.84,-5.82 230.1,-27.39 338.5,-68.9 -15.3,-54.39 -28.34,-109.39 -39.18,-164.84 -65.6,11.31 -131.22,21.09 -196.17,36.24 -71.17,16.58 -141.45,36.65 -211.36,57.9 -140.17,42.62 -278.93,92.3 -422.44,122.86 -10.74,2.3 -21.31,4.09 -31.93,6.06 -2.38,52.14 -6.08,104.24 -11.9,156.11 58.99,-4.55 117.51,-13.91 174.51,-30.49z"/>
  <path class="fil4" d="M2364.83 6019.47c-17.33,31.97 -53.44,58.35 -88.92,46.83 -36.31,-11.78 -56.54,-57.19 -67.12,-93.23 -12.4,-42.32 -17.49,-90.72 -15.53,-147.96l0.14 -4.4c1.69,-57.49 1.31,-175.95 85.68,-120.43 2.96,1.92 5.99,3.83 8.82,5.82 3.43,2.41 6.65,4.88 9.9,7.34 3,2.28 6.01,4.55 8.88,6.9 2.95,2.41 5.79,4.91 8.6,7.38 2.93,2.59 5.79,5.22 8.58,7.91 2.54,2.44 5.04,4.93 7.49,7.45 2.9,3.01 5.72,6.12 8.48,9.26 2.14,2.43 4.29,4.85 6.37,7.35 2.32,2.83 4.53,5.81 6.76,8.75 3.21,4.19 6.37,8.51 9.5,12.93 3.45,4.98 6.88,10.04 10.22,15.4 1.4,12.51 3.03,24.93 4.67,37.11 2.76,20.52 5.61,41.76 7.07,62.6 3.54,51.11 -3.07,92.49 -19.59,122.99zm895.51 -1036.58c31.11,12.91 52.42,27.77 67.01,46.78 18.08,23.56 24.58,54.47 16.56,78.73 -6.65,20.14 -23.35,36.81 -45.83,45.7 -21.14,8.37 -44.46,9.44 -66.99,10.48l-170.26 7.84c-2.45,-5.2 -4.95,-10.37 -7.54,-15.43l-1.82 -3.43c-5.26,-10.08 -10.79,-19.88 -16.58,-29.45l-0.02 -0.02c-13.77,-22.78 -29.02,-44.2 -45.53,-64.53 -103.46,43.4 -203.22,94.21 -297.45,152.73 -12.11,7.52 -24.14,15.15 -36.08,22.93 -144.68,94.18 -286.03,222.52 -399.9,371.08 -11.94,17.55 -23.58,35.26 -34.85,53.09l-4.32 0.48c-9.82,14.08 -19.41,28.3 -28.7,42.69 -6.58,26.31 -10.53,64.97 -12.09,117.36l-0.13 4.33c-2.04,59.69 3.35,110.45 16.46,155.14 11.92,40.62 35.29,92.04 78.98,106.21 7.82,2.53 15.61,3.62 23.3,3.46 35.37,-0.7 68.05,-27.44 85.1,-58.92 18.54,-34.2 26,-79.68 22.17,-135.15 -1.5,-21.6 -4.42,-43.2 -7.23,-64.09 -2.15,-16.02 -4.13,-32.39 -5.68,-48.75 6.12,-6.06 12.25,-12 18.33,-17.64 21.01,-19.44 42.03,-36.37 63.81,-51.28 8.68,-5.94 17.55,-11.58 26.56,-16.9 24.18,-14.31 49.6,-26.75 77.77,-37.43 11.32,-4.29 23.04,-8.34 35.25,-12.19 5.68,-1.79 11.39,-3.58 17.13,-5.4 28.65,-9.06 57.73,-18.57 85.83,-30.13 5.62,-2.32 11.21,-4.73 16.74,-7.22 29.25,-13.2 57.02,-29.16 81.78,-49.58 17.36,-14.33 33.26,-30.8 47.01,-50.33 23.53,-33.39 38.85,-72.66 53.44,-112.52 8.77,-23.92 17.26,-48.04 27.13,-71.21 23.99,-56.34 62.05,-111.5 113.64,-127.49l178.55 -8.22c23.77,-1.09 48.38,-2.22 71.94,-11.56 27.36,-10.83 47.92,-31.79 56.4,-57.48 10.28,-31.13 2.5,-70.05 -19.82,-99.14 -21.84,-28.45 -52.83,-43.55 -74.22,-52.42l-0.11 -0.03c-10.66,2.91 -21.21,6.19 -31.84,9.27 8.79,2.85 17.49,6.02 26.11,9.62z"/>
  <path class="fil29" d="M2378.61 5711.11c1.8,41.55 10.41,81.55 12.65,121.11 0.33,5.93 0.51,11.88 0.51,17.82 0.02,33.74 -6.02,67.05 -23.5,93.77 -16.5,25.47 -46.55,43.93 -75.11,43.78 -6.37,0 -12.67,-0.87 -18.85,-2.74 -17.28,-5.21 -31.24,-16.87 -42.6,-32.39 -11.34,-15.49 -19.79,-34.69 -25.71,-53.65 -10.34,-33.01 -14.28,-67.88 -14.28,-102.94 0,-10.64 0.37,-21.32 1.03,-31.97 0.62,-10.17 2.15,-44.97 7.66,-76.92 2.72,-15.93 6.54,-31.12 11.25,-41.47 2.32,-5.18 4.9,-9.07 7.08,-11.21 2.3,-2.17 3.6,-2.55 5.04,-2.59 1.21,0 3.22,0.42 6.29,2.49l10.2 -15.14c-5.17,-3.5 -10.76,-5.61 -16.49,-5.61 -7.06,-0.03 -13.36,3.35 -17.84,7.85 -7.93,7.98 -12.67,19.34 -16.69,32.44 -5.88,19.67 -9.26,43.47 -11.41,64.22 -2.12,20.68 -2.92,38.36 -3.32,44.83 -0.68,10.97 -1.06,22.02 -1.06,33.08 0,36.41 4.07,73.13 15.11,108.4 6.35,20.28 15.41,41.17 28.37,58.93 12.93,17.73 30.04,32.48 52.09,39.13 7.94,2.4 16.04,3.51 24.1,3.51 36.22,-0.17 70.64,-21.95 90.39,-52.07 20.21,-31.03 26.47,-67.94 26.47,-103.75 0,-6.32 -0.18,-12.62 -0.54,-18.87 -2.41,-41.43 -10.97,-81.34 -12.64,-120.85l-18.24 0.79z"/>
  <path class="fil20" d="M2989.14 5030.08c55.32,48.61 100.84,103.93 132.18,170.55 -62.37,6.98 -108.77,61.31 -137.54,117.08 -28.78,55.78 -47.51,117.82 -87.99,165.79 -63.7,75.48 -167.13,100.97 -262.83,125.43 -102.86,26.29 -172.96,64.89 -251.29,133.22 -37.48,-55.05 -80.71,-87.91 -160.84,-122.98 196.62,-261.75 490.9,-490.01 768.31,-589.09z"/>
  <path class="fil25" d="M2980.74 5119.35c-70.92,9.82 -132.34,53.95 -184.43,103.05 -52.1,49.1 -98.52,104.77 -156.58,146.63 -48.77,35.17 -105.1,59.78 -164.03,71.72 66.48,-15.74 117.9,-58.44 168.49,-104.33 50.59,-45.9 96.31,-97.28 150.16,-139.3 53.84,-42.03 118.09,-77.11 186.4,-77.77z"/>
  <path class="fil25" d="M3030.1 5170.55c-69.67,23.59 -116.05,87.82 -158.35,148 -42.29,60.18 -90.32,123.76 -160.86,144.58 54.91,-46.07 95.55,-101.09 142.18,-155.5 46.63,-54.45 109.17,-114.02 177.03,-137.08z"/>
  <path class="fil19" d="M3121.31 5200.63c-9.92,-21.06 -21.41,-40.9 -34,-59.85 -58.56,31.44 -107.4,84.76 -148.31,138.78 -58.32,77.05 -111.78,162.64 -195.13,211.56 -62.77,36.85 -136.39,49.09 -207.17,65.97 -70.81,16.88 -145.04,27.23 -194.38,80.77 -5.97,-11.62 -19.37,-28.96 -19.37,-28.96 29.14,-37.71 58.3,-75.41 87.45,-113.11 -56.69,41.34 -109.77,87.57 -158.88,137.67 61,30.17 97.77,61.13 130.15,108.68 78.33,-68.33 148.42,-106.92 251.29,-133.22 95.7,-24.46 199.13,-49.95 262.83,-125.43 40.48,-47.96 59.22,-110.03 87.99,-165.79 28.78,-55.77 75.17,-110.1 137.54,-117.08z"/>
  <path class="fil19" d="M2693.77 5402.14c106.98,-114.5 239.5,-210.27 382.26,-277.68 -6.61,-9.14 -13.58,-18.02 -20.82,-26.71 -139.96,74.73 -264.25,178.91 -361.44,304.39z"/>
  <path class="fil29" d="M3103.92 5167.67c-47.5,25.36 -89.63,60.92 -121.8,104.14 -43.24,58.06 -69.01,128.61 -118.13,181.82 -49.39,53.46 -118.17,84.7 -187.1,108.12 -68.92,23.41 -140.36,40.53 -205.8,72.41 -41.05,19.99 -80.17,46.92 -110.12,80.96 7.15,8.48 14.06,17.3 20.69,27.02 78.33,-68.33 148.42,-106.92 251.29,-133.22 95.7,-24.46 199.13,-49.95 262.83,-125.43 40.48,-47.96 59.22,-110.03 87.99,-165.79 28.78,-55.77 75.17,-110.1 137.54,-117.08 -5.35,-11.35 -11.25,-22.25 -17.39,-32.97z"/>
  <path class="fil29" d="M3058.21 5033.81l-0.06 -1.38c-0.14,-8.46 6.01,-18.08 14.57,-23.83 9.15,-6.29 21.2,-9.4 34.02,-11.78 24.65,-4.62 49.75,-6.92 74.84,-6.92 49.22,0 98.47,8.85 144.41,26.36 26.6,10.1 51.96,23.43 69.15,43.77 12.06,14.19 19.77,33.07 19.72,50.78 0,7.32 -1.27,14.44 -3.98,21.16 -7.7,19.37 -27.3,33.81 -48.88,40.79 -21.66,7.05 -45.73,7.8 -70.28,8.34 -62.94,1.46 -125.91,2.93 -188.85,4.37l0.42 18.25c62.95,-1.44 125.91,-2.9 188.87,-4.36 24.56,-0.6 50.43,-1.13 75.48,-9.24 25.16,-8.22 49.47,-25.13 60.16,-51.32 3.67,-9.06 5.31,-18.57 5.31,-27.99 -0.03,-22.9 -9.46,-45.32 -24.04,-62.58 -20.43,-24.06 -48.75,-38.41 -76.57,-49.02 -48.09,-18.33 -99.49,-27.57 -150.9,-27.57 -26.22,0 -52.44,2.41 -78.22,7.24 -13.38,2.55 -27.99,5.88 -40.9,14.61 -12.36,8.47 -22.4,22.31 -22.56,38.93l0.09 2.68 18.22 -1.28 0 -0.01z"/>
  <polygon class="fil23" points="6453.18,6969.87 7117.46,6598.29 7090.72,6550.48 6426.45,6922.08 "/>
  <path class="fil8" d="M6331.25 6836.82l120.48 -60.02 124.16 249.39 -120.47 59.98c-12.67,6.3 -26.91,6.4 -39.02,1.33 -10.26,-4.16 -19.15,-11.89 -24.49,-22.6l-81.88 -164.48c-11.73,-23.49 -2.18,-51.97 21.22,-63.61z"/>
  <path class="fil30" d="M6486.25 6846.13l89.65 180.06 -120.47 59.98c-12.67,6.3 -26.91,6.4 -39.02,1.33 -11.65,-19.14 -33.62,-59.57 -78.33,-149.36 0,0 23.93,1.93 67.39,-16.37 43.44,-18.13 82.24,-43.69 80.78,-75.65z"/>
  <path class="fil0" d="M6494.13 6911.33c1.68,3.36 0.3,7.45 -3.04,9.13l-112.22 55.85c-3.34,1.69 -7.43,0.33 -9.11,-3.04 -1.66,-3.36 -0.31,-7.45 3.05,-9.13l112.19 -55.85c3.36,-1.69 7.45,-0.31 9.13,3.04z"/>
  <path class="fil23" d="M6463.49 6849.8c1.69,3.38 0.31,7.47 -3.04,9.13l-112.2 55.87c-3.35,1.67 -7.45,0.33 -9.11,-3.05 -1.68,-3.37 -0.33,-7.45 3.05,-9.13l112.17 -55.87c3.38,-1.66 7.45,-0.31 9.13,3.04z"/>
  <path class="fil0" d="M6524.77 6972.85c1.66,3.36 0.3,7.43 -3.06,9.11l-112.2 55.87c-3.36,1.68 -7.45,0.31 -9.13,-3.06 -1.68,-3.36 -0.31,-7.43 3.06,-9.11l112.2 -55.88c3.36,-1.68 7.45,-0.31 9.13,3.07z"/>
  <polygon class="fil20" points="6240.87,6986.58 6330.67,6941.84 6371.23,7023.35 6281.44,7068.06 "/>
  <path class="fil19" d="M6240.87 6986.58c0,0 24.74,48.16 115.19,6.32l15.17 30.46 -89.54 44.6 -40.82 -81.38z"/>
  <path class="fil20" d="M6036.56 6797.01l20.83 -1.54 21.84 -1.61 70.48 116.18c0,0 55.43,6.6 69.15,32.32 13.66,25.55 93.05,186.85 93.05,186.85 0,0 2.86,39.93 -36.05,55.82 0,0 -16.64,-21.51 -34.92,-43.59l-3.29 -3.84 -0.24 -0.18c-8.33,-9.99 -16.84,-19.76 -24.18,-27.48 -24.5,-25.67 -116.73,-84.19 -130.36,-153.1 -2.41,-12.17 -5.37,-25.14 -8.77,-38.05l-0.11 -0.25c-15.37,-60.15 -37.43,-121.54 -37.43,-121.54z"/>
  <path class="fil19" d="M6036.56 6797.01l20.83 -1.54 21.84 -1.61 70.48 116.18c0,0 55.43,6.6 69.15,32.32 13.66,25.55 93.05,186.85 93.05,186.85 0,0 2.86,39.93 -36.05,55.82l-56.57 -138.62 -77.16 -74.37 -105.57 -175.03z"/>
  <path class="fil24" d="M6074.1 6918.8c3.24,5.55 49.83,87.53 52.92,90.99 3.23,3.45 77.77,76.22 77.77,76.22l32.85 51.59 -0.24 -0.18c-8.33,-9.99 -16.84,-19.76 -24.18,-27.48 -24.5,-25.67 -116.73,-84.19 -130.36,-153.1 -2.41,-12.17 -5.37,-25.14 -8.77,-38.05z"/>
  <path class="fil24" d="M6844.91 7146.52l811.77 61.36c73.29,5.55 137.19,-49.37 142.73,-122.67l33.96 -449.31c5.53,-73 -49.66,-137.23 -122.66,-142.77l-811.77 -61.34c-85.89,-6.51 -160.78,57.85 -167.26,143.74l-30.51 403.72c-6.5,85.89 57.87,160.78 143.75,167.26z"/>
  <path class="fil20" d="M7060.41 6444c-8.29,134.54 92.9,251.23 227.75,261.42 134.86,10.2 252.43,-89.95 264.46,-224.22l-492.21 -37.21z"/>
  <path class="fil30" d="M7759.04 7009.42l-309.06 32.1c-150.2,-0.98 -297.72,-44.26 -447.78,-69.43 173.43,3.87 366.66,5.73 540.12,9.6 -245.75,-21.39 -486.74,-45.5 -732.46,-66.88 -14.15,-46.71 -18.24,-91.86 -21.77,-140.5 -10.06,32.33 -48.33,115.59 -86.74,202.23l-0.19 2.72c-6.5,85.89 57.87,160.78 143.75,167.26l811.77 61.36c73.29,5.55 137.19,-49.37 142.73,-122.67l7.44 -98.56 3.77 -49.73 3.14 -41.47 0.85 -11.41c-8.23,42.46 -55.58,125.38 -55.58,125.38z"/>
  <polygon class="fil11" points="7173.2,6452.54 7169.82,6497.2 7255.01,6503.65 7248.57,6588.84 7344.86,6596.11 7351.29,6510.93 7436.46,6517.36 7439.86,6472.67 "/>
  <path class="fil19" d="M6637.42 6950.15l65.55 4.95 26.87 -355.54 -65.52 -4.95c-16.98,-1.26 -31.71,11.41 -32.99,28.36l-22.24 294.35c-1.3,16.81 11.39,31.55 28.34,32.84z"/>
  <path class="fil20" d="M6711.23 6845.86l18.62 -246.3 -65.52 -4.95c-16.98,-1.26 -31.71,11.41 -32.99,28.36l-16.31 215.63c0,0 4.22,-41.44 25.27,-39.85 20.89,1.59 60.38,4.57 60.38,4.57 0,0 13.52,3.62 10.56,42.56z"/>
 </g>
</svg>
